M48
; DRILL file {KiCad (6.0.2)} date Thu Mar 17 15:00:35 2022
; FORMAT={-:-/ absolute / inch / decimal}
; #@! TF.CreationDate,2022-03-17T15:00:35+00:00
; #@! TF.GenerationSoftware,Kicad,Pcbnew,(6.0.2)
; #@! TF.FileFunction,Plated,1,4,PTH
FMAT,2
INCH
; #@! TA.AperFunction,Plated,PTH,ViaDrill
T1C0.0157
; #@! TA.AperFunction,Plated,PTH,ComponentDrill
T2C0.0236
; #@! TA.AperFunction,Plated,PTH,ComponentDrill
T3C0.0315
; #@! TA.AperFunction,Plated,PTH,ComponentDrill
T4C0.0335
; #@! TA.AperFunction,Plated,PTH,ComponentDrill
T5C0.0394
; #@! TA.AperFunction,Plated,PTH,ComponentDrill
T6C0.1693
%
G90
G05
T1
X5.9449Y-2.5512
X5.9545Y-2.5907
X5.9961Y-2.5492
X6.0197Y-2.5803
X6.0906Y-2.4331
X6.1024Y-2.3346
X6.126Y-2.3976
X6.1268Y-2.2992
X6.1398Y-1.9354
X6.1398Y-2.0709
X6.1693Y-2.7205
X6.1815Y-2.3154
X6.2035Y-2.1839
X6.2047Y-2.3976
X6.2205Y-2.2441
X6.2398Y-2.3362
X6.2484Y-2.4362
X6.3063Y-1.4453
X6.3071Y-1.4803
X6.4055Y-1.4843
X6.4063Y-1.4413
X6.4094Y-2.4409
X6.4134Y-2.3346
X6.5512Y-2.3071
X6.5512Y-2.3524
X6.6925Y-3.178
X6.7362Y-1.8937
X6.7362Y-3.1772
X6.7917Y-3.1799
X6.8004Y-1.8972
X6.8154Y-2.1394
X6.8189Y-2.0512
X6.8386Y-3.1772
X6.8835Y-3.1811
X7.0866Y-2.4291
X7.1654Y-2.4055
X7.3583Y-2.6063
X7.5154Y-2.2866
X7.5154Y-2.3469
X7.5189Y-2.3894
X7.5197Y-2.4291
X7.5197Y-2.4681
X7.5382Y-2.3157
X7.6457Y-2.1299
X7.6575Y-2.3346
X7.6717Y-2.2894
X7.6772Y-2.3732
X7.8189Y-2.0591
X7.8701Y-2.2362
X7.9094Y-2.0866
X7.939Y-1.8386
X7.9398Y-1.7461
X7.94Y-1.7953
X7.96Y-2.9
X7.96Y-2.94
X8.1457Y-2.8937
X8.15Y-2.85
X8.2071Y-3.1177
X8.2421Y-3.1118
X8.2957Y-3.1161
X8.3858Y-3.1102
X8.4327Y-3.1327
X8.576Y-2.9681
X8.6224Y-2.7677
X8.6303Y-2.9677
X8.6732Y-2.7693
X8.8819Y-2.5197
X8.8839Y-2.622
X8.8906Y-2.0559
X8.9165Y-2.0961
X9.3661Y-2.122
X9.3669Y-2.1673
X9.374Y-2.0354
X9.4055Y-1.8588
X9.4094Y-2.3307
X9.4185Y-2.0626
X9.4409Y-2.4291
X9.5039Y-2.2756
X9.5591Y-2.0354
X9.563Y-2.4291
X9.6339Y-2.0354
X9.6732Y-2.778
X9.6839Y-2.9646
X9.7378Y-2.778
X9.7394Y-2.965
T2
X5.9124Y-3.1339
X5.9203Y-1.5276
X5.9496Y-3.0441
X5.9496Y-3.2236
X5.9575Y-1.4378
X5.9575Y-1.6173
X6.0394Y-3.0069
X6.0394Y-3.2608
X6.0472Y-1.4006
X6.0472Y-1.6545
X6.1292Y-3.0441
X6.1292Y-3.2236
X6.137Y-1.4378
X6.137Y-1.6173
X6.1663Y-3.1339
X6.1742Y-1.5276
X9.4163Y-1.5276
X9.4163Y-3.1339
X9.4535Y-1.4378
X9.4535Y-1.6173
X9.4535Y-3.0441
X9.4535Y-3.2236
X9.5433Y-1.4006
X9.5433Y-1.6545
X9.5433Y-3.0069
X9.5433Y-3.2608
X9.6331Y-1.4378
X9.6331Y-1.6173
X9.6331Y-3.0441
X9.6331Y-3.2236
X9.6703Y-1.5276
X9.6703Y-3.1339
T3
X6.3228Y-1.7362
X6.3228Y-1.8362
X6.3228Y-1.9362
X6.3228Y-2.0362
X6.3228Y-2.1362
X6.3228Y-2.2362
X6.3228Y-2.3362
X6.3228Y-2.4362
X6.3228Y-2.5362
X6.3228Y-2.6362
X6.3228Y-2.7362
X6.3228Y-2.8362
X6.3228Y-2.9362
X6.3228Y-3.0362
X6.6228Y-1.7362
X6.6228Y-1.8362
X6.6228Y-1.9362
X6.6228Y-2.0362
X6.6228Y-2.1362
X6.6228Y-2.2362
X6.6228Y-2.3362
X6.6228Y-2.4362
X6.6228Y-2.5362
X6.6228Y-2.6362
X6.6228Y-2.7362
X6.6228Y-2.8362
X6.6228Y-2.9362
X6.6228Y-3.0362
X7.4488Y-1.7283
X7.4488Y-1.8283
X7.4488Y-1.9283
X7.4488Y-2.0283
X7.4488Y-2.1283
X7.4488Y-2.2283
X7.4488Y-2.3283
X7.4488Y-2.4283
X7.4488Y-2.5283
X7.4488Y-2.6283
X7.4488Y-2.7283
X7.4488Y-2.8283
X7.4488Y-2.9283
X7.4488Y-3.0283
X7.7488Y-1.7283
X7.7488Y-1.8283
X7.7488Y-1.9283
X7.7488Y-2.0283
X7.7488Y-2.1283
X7.7488Y-2.2283
X7.7488Y-2.3283
X7.7488Y-2.4283
X7.7488Y-2.5283
X7.7488Y-2.6283
X7.7488Y-2.7283
X7.7488Y-2.8283
X7.7488Y-2.9283
X7.7488Y-3.0283
X8.9835Y-1.4205
X8.9835Y-1.5205
X8.9835Y-1.6205
X8.9835Y-1.7205
X8.9835Y-1.8205
X8.9835Y-1.9205
X8.9835Y-2.0205
X8.9835Y-2.1205
X8.9835Y-2.2205
X8.9835Y-2.3205
X8.9835Y-2.4205
X8.9835Y-2.5205
X8.9835Y-2.6205
X8.9835Y-2.7205
X9.2835Y-1.4205
X9.2835Y-1.5205
X9.2835Y-1.6205
X9.2835Y-1.7205
X9.2835Y-1.8205
X9.2835Y-1.9205
X9.2835Y-2.0205
X9.2835Y-2.1205
X9.2835Y-2.2205
X9.2835Y-2.3205
X9.2835Y-2.4205
X9.2835Y-2.5205
X9.2835Y-2.6205
X9.2835Y-2.7205
T4
X8.2484Y-3.1877
X8.4453Y-3.1877
T5
X5.9016Y-2.878
X6.3031Y-3.2717
X6.3063Y-1.3898
X6.3071Y-1.5906
X6.4063Y-1.3898
X6.4449Y-3.2717
X6.4488Y-1.5906
X6.5063Y-1.3898
X6.5866Y-3.2717
X6.5906Y-1.5906
X6.6063Y-1.3898
X6.7063Y-1.3898
X6.7382Y-3.2717
X6.7441Y-1.9959
X6.7441Y-2.0959
X6.7441Y-2.1959
X6.7441Y-2.2959
X6.7441Y-2.3959
X6.7441Y-2.4959
X6.7441Y-2.5959
X6.7441Y-2.6959
X6.8063Y-1.3898
X6.8382Y-3.2717
X6.9382Y-3.2717
X6.9799Y-1.8394
X7.0382Y-3.2717
X7.1236Y-1.8409
X7.126Y-1.3937
X7.1382Y-3.2717
X7.2382Y-3.2717
X7.2717Y-1.3937
X7.3898Y-3.2717
X7.4803Y-1.3858
X7.5315Y-3.2717
X7.622Y-1.3858
X7.6732Y-3.2717
X7.7638Y-1.3858
X7.815Y-3.2717
X7.9055Y-1.3858
X7.9567Y-3.2717
X8.0551Y-1.7898
X8.0551Y-1.8898
X8.0551Y-1.9898
X8.0551Y-2.0898
X8.0551Y-2.1898
X8.0551Y-2.2898
X8.0551Y-2.3898
X8.0551Y-2.4898
X8.0551Y-2.5898
X8.0551Y-2.6898
X8.0551Y-2.7898
X8.0551Y-2.8898
X8.0787Y-1.3858
X8.0984Y-3.2717
X8.2441Y-1.378
X8.2744Y-1.648
X8.4094Y-1.3858
X8.4213Y-1.6469
X8.5551Y-1.3858
X8.6028Y-2.874
X8.6614Y-3.2677
X8.7008Y-1.3858
X8.7028Y-2.874
X8.8028Y-2.874
X8.8071Y-3.2677
X8.8425Y-1.3858
X8.9028Y-2.874
X8.9488Y-3.2677
X9.0028Y-2.874
X9.0906Y-3.2677
X9.1028Y-2.874
X9.2028Y-2.874
X9.2433Y-3.2693
X9.2449Y-3.0772
X9.3028Y-2.874
X9.4028Y-2.874
X9.5028Y-2.874
X9.6028Y-2.874
X9.6929Y-2.1496
X9.6929Y-2.2913
X9.6929Y-2.4331
X9.7028Y-2.874
T6
X6.0394Y-3.1339
X6.0472Y-1.5276
X9.5433Y-1.5276
X9.5433Y-3.1339
T2
G00X8.2091Y-3.3078
M15
G01X8.2091Y-3.2802
M16
G05
G00X8.4846Y-3.2802
M15
G01X8.4846Y-3.3078
M16
G05
T0
M30
