%TF.GenerationSoftware,KiCad,Pcbnew,(6.0.2)*%
%TF.CreationDate,2022-03-17T15:01:17+00:00*%
%TF.ProjectId,PROJ324-Ard1,50524f4a-3332-4342-9d41-7264312e6b69,rev?*%
%TF.SameCoordinates,Original*%
%TF.FileFunction,Copper,L4,Bot*%
%TF.FilePolarity,Positive*%
%FSLAX46Y46*%
G04 Gerber Fmt 4.6, Leading zero omitted, Abs format (unit mm)*
G04 Created by KiCad (PCBNEW (6.0.2)) date 2022-03-17 15:01:17*
%MOMM*%
%LPD*%
G01*
G04 APERTURE LIST*
%TA.AperFunction,ComponentPad*%
%ADD10R,1.700000X1.700000*%
%TD*%
%TA.AperFunction,ComponentPad*%
%ADD11C,1.450000*%
%TD*%
%TA.AperFunction,ComponentPad*%
%ADD12O,1.200000X1.900000*%
%TD*%
%TA.AperFunction,ComponentPad*%
%ADD13O,1.700000X1.700000*%
%TD*%
%TA.AperFunction,ComponentPad*%
%ADD14C,8.600000*%
%TD*%
%TA.AperFunction,ComponentPad*%
%ADD15C,0.900000*%
%TD*%
%TA.AperFunction,ComponentPad*%
%ADD16R,1.600000X1.600000*%
%TD*%
%TA.AperFunction,ComponentPad*%
%ADD17O,1.600000X1.600000*%
%TD*%
%TA.AperFunction,ViaPad*%
%ADD18C,0.800000*%
%TD*%
%TA.AperFunction,Conductor*%
%ADD19C,0.750000*%
%TD*%
%TA.AperFunction,Conductor*%
%ADD20C,0.300000*%
%TD*%
%TA.AperFunction,Conductor*%
%ADD21C,0.500000*%
%TD*%
G04 APERTURE END LIST*
D10*
%TO.P,J33,1,Pin_1*%
%TO.N,ATMEGA_3_TXD*%
X184700000Y-35400000D03*
%TD*%
%TO.P,J44,1,Pin_1*%
%TO.N,+5V*%
X210170000Y-41860000D03*
%TD*%
%TO.P,J21,1,Pin_1*%
%TO.N,Net-(J21-Pad1)*%
X221000000Y-35200000D03*
%TD*%
%TO.P,J27,1,Pin_1*%
%TO.N,ATMEGA_2_RXD*%
X190000000Y-35200000D03*
%TD*%
%TO.P,J12,1,Pin_1*%
%TO.N,ATMEGA_1_RXD*%
X227300000Y-83000000D03*
%TD*%
%TO.P,J20,1,Pin_1*%
%TO.N,Net-(U4-Pad16)*%
X205700000Y-83100000D03*
%TD*%
D11*
%TO.P,J1,6,Shield*%
%TO.N,unconnected-(J1-Pad6)*%
X209510000Y-80967500D03*
D12*
X215510000Y-83667500D03*
X208510000Y-83667500D03*
D11*
X214510000Y-80967500D03*
%TD*%
D10*
%TO.P,J45,1,Pin_1*%
%TO.N,+5V*%
X234780000Y-83040000D03*
%TD*%
%TO.P,J38,1,Pin_1*%
%TO.N,Net-(J38-Pad1)*%
X198500000Y-83100000D03*
%TD*%
%TO.P,J40,1,Pin_1*%
%TO.N,GND*%
X213900000Y-41830000D03*
%TD*%
%TO.P,J18,1,Pin_1*%
%TO.N,Net-(J18-Pad1)*%
X202100000Y-83100000D03*
%TD*%
%TO.P,J24,1,Pin_1*%
%TO.N,Net-(J24-Pad1)*%
X209400000Y-35000000D03*
%TD*%
%TO.P,J32,1,Pin_1*%
%TO.N,Net-(J32-Pad1)*%
X163800000Y-40400000D03*
%TD*%
%TO.P,J22,1,Pin_1*%
%TO.N,Net-(J22-Pad1)*%
X191300000Y-83100000D03*
%TD*%
%TO.P,J9,1,Pin_1*%
%TO.N,Net-(J9-Pad1)*%
X213600000Y-35200000D03*
%TD*%
%TO.P,J26,1,Pin_1*%
%TO.N,Net-(J26-Pad1)*%
X200800000Y-35200000D03*
%TD*%
%TO.P,J30,1,Pin_1*%
%TO.N,Net-(J30-Pad1)*%
X160200000Y-40400000D03*
%TD*%
%TO.P,J4,1,Pin_1*%
%TO.N,GND*%
X204600000Y-73400000D03*
D13*
%TO.P,J4,2,Pin_2*%
%TO.N,ATMEGA_2_DRDY*%
X204600000Y-70860000D03*
%TO.P,J4,3,Pin_3*%
%TO.N,ATMEGA_2_MISO*%
X204600000Y-68320000D03*
%TO.P,J4,4,Pin_4*%
%TO.N,ATMEGA_2_SCK*%
X204600000Y-65780000D03*
%TO.P,J4,5,Pin_5*%
%TO.N,ATMEGA_2_MOSI*%
X204600000Y-63240000D03*
%TO.P,J4,6,Pin_6*%
%TO.N,ATMEGA_2_CS*%
X204600000Y-60700000D03*
%TO.P,J4,7,Pin_7*%
%TO.N,ATMEGA_2_START*%
X204600000Y-58160000D03*
%TO.P,J4,8,Pin_8*%
%TO.N,ATMEGA_2_PWDN_RESET*%
X204600000Y-55620000D03*
%TO.P,J4,9,Pin_9*%
%TO.N,unconnected-(J4-Pad9)*%
X204600000Y-53080000D03*
%TO.P,J4,10,Pin_10*%
%TO.N,unconnected-(J4-Pad10)*%
X204600000Y-50540000D03*
%TO.P,J4,11,Pin_11*%
%TO.N,unconnected-(J4-Pad11)*%
X204600000Y-48000000D03*
%TO.P,J4,12,Pin_12*%
%TO.N,+5V*%
X204600000Y-45460000D03*
%TD*%
D10*
%TO.P,J16,1,Pin_1*%
%TO.N,Net-(J16-Pad1)*%
X246200000Y-54600000D03*
%TD*%
%TO.P,J42,1,Pin_1*%
%TO.N,GND*%
X180940000Y-46760000D03*
%TD*%
%TO.P,J41,1,Pin_1*%
%TO.N,GND*%
X234820000Y-78160000D03*
%TD*%
D14*
%TO.P,H3,1,1*%
%TO.N,GND*%
X242400000Y-79600000D03*
D15*
X242400000Y-76375000D03*
X240119581Y-81880419D03*
X239175000Y-79600000D03*
X244680419Y-77319581D03*
X245625000Y-79600000D03*
X240119581Y-77319581D03*
X244680419Y-81880419D03*
X242400000Y-82825000D03*
%TD*%
%TO.P,H2,1,1*%
%TO.N,GND*%
X151119581Y-81880419D03*
D14*
X153400000Y-79600000D03*
D15*
X155680419Y-77319581D03*
X156625000Y-79600000D03*
X153400000Y-76375000D03*
X151119581Y-77319581D03*
X155680419Y-81880419D03*
X150175000Y-79600000D03*
X153400000Y-82825000D03*
%TD*%
D10*
%TO.P,J17,1,Pin_1*%
%TO.N,Net-(J17-Pad1)*%
X187700000Y-83100000D03*
%TD*%
%TO.P,J6,1,Pin_1*%
%TO.N,+5V*%
X160180000Y-35300000D03*
D13*
%TO.P,J6,2,Pin_2*%
%TO.N,GND*%
X162720000Y-35300000D03*
%TO.P,J6,3,Pin_3*%
%TO.N,unconnected-(J6-Pad3)*%
X165260000Y-35300000D03*
%TO.P,J6,4,Pin_4*%
%TO.N,unconnected-(J6-Pad4)*%
X167800000Y-35300000D03*
%TO.P,J6,5,Pin_5*%
%TO.N,ATMEGA_3_SCL_1*%
X170340000Y-35300000D03*
%TO.P,J6,6,Pin_6*%
%TO.N,ATMEGA_3_SDA_1*%
X172880000Y-35300000D03*
%TD*%
D10*
%TO.P,J14,1,Pin_1*%
%TO.N,Net-(J14-Pad1)*%
X163700000Y-83100000D03*
%TD*%
D16*
%TO.P,U5,1,~{RESET}/PC6*%
%TO.N,ATMEGA_RESET*%
X160600000Y-44100000D03*
D17*
%TO.P,U5,2,PD0*%
%TO.N,ATMEGA_3_RXD*%
X160600000Y-46640000D03*
%TO.P,U5,3,PD1*%
%TO.N,ATMEGA_3_TXD*%
X160600000Y-49180000D03*
%TO.P,U5,4,PD2*%
%TO.N,Net-(J30-Pad1)*%
X160600000Y-51720000D03*
%TO.P,U5,5,PD3*%
%TO.N,Net-(J32-Pad1)*%
X160600000Y-54260000D03*
%TO.P,U5,6,PD4*%
%TO.N,Net-(J35-Pad1)*%
X160600000Y-56800000D03*
%TO.P,U5,7,VCC*%
%TO.N,+5V*%
X160600000Y-59340000D03*
%TO.P,U5,8,GND*%
%TO.N,GND*%
X160600000Y-61880000D03*
%TO.P,U5,9,XTAL1/PB6*%
%TO.N,ATMEGA_3_CRYSTAL_IN*%
X160600000Y-64420000D03*
%TO.P,U5,10,XTAL2/PB7*%
%TO.N,ATMEGA_3_CRYSTAL_OUT*%
X160600000Y-66960000D03*
%TO.P,U5,11,PD5*%
%TO.N,Net-(J36-Pad1)*%
X160600000Y-69500000D03*
%TO.P,U5,12,PD6*%
%TO.N,Net-(J37-Pad1)*%
X160600000Y-72040000D03*
%TO.P,U5,13,PD7*%
%TO.N,Net-(J39-Pad1)*%
X160600000Y-74580000D03*
%TO.P,U5,14,PB0*%
%TO.N,Net-(J14-Pad1)*%
X160600000Y-77120000D03*
%TO.P,U5,15,PB1*%
%TO.N,Net-(J17-Pad1)*%
X168220000Y-77120000D03*
%TO.P,U5,16,PB2*%
%TO.N,ATMEGA_3_LCD_LED*%
X168220000Y-74580000D03*
%TO.P,U5,17,PB3*%
%TO.N,ATMEGA_3_LCD_SDA*%
X168220000Y-72040000D03*
%TO.P,U5,18,PB4*%
%TO.N,Net-(J22-Pad1)*%
X168220000Y-69500000D03*
%TO.P,U5,19,PB5*%
%TO.N,ATMEGA_3_LCD_SCK*%
X168220000Y-66960000D03*
%TO.P,U5,20,AVCC*%
%TO.N,unconnected-(U5-Pad20)*%
X168220000Y-64420000D03*
%TO.P,U5,21,AREF*%
%TO.N,unconnected-(U5-Pad21)*%
X168220000Y-61880000D03*
%TO.P,U5,22,GND*%
%TO.N,GND*%
X168220000Y-59340000D03*
%TO.P,U5,23,PC0*%
%TO.N,unconnected-(U5-Pad23)*%
X168220000Y-56800000D03*
%TO.P,U5,24,PC1*%
%TO.N,ATMEGA_3_LCD_CS*%
X168220000Y-54260000D03*
%TO.P,U5,25,PC2*%
%TO.N,ATMEGA_3_LCD_RESET*%
X168220000Y-51720000D03*
%TO.P,U5,26,PC3*%
%TO.N,ATMEGA_3_LCD_A0*%
X168220000Y-49180000D03*
%TO.P,U5,27,PC4*%
%TO.N,ATMEGA_3_SDA_1*%
X168220000Y-46640000D03*
%TO.P,U5,28,PC5*%
%TO.N,ATMEGA_3_SCL_1*%
X168220000Y-44100000D03*
%TD*%
D15*
%TO.P,H4,1,1*%
%TO.N,GND*%
X244680419Y-36519581D03*
X245625000Y-38800000D03*
D14*
X242400000Y-38800000D03*
D15*
X242400000Y-35575000D03*
X244680419Y-41080419D03*
X242400000Y-42025000D03*
X239175000Y-38800000D03*
X240119581Y-36519581D03*
X240119581Y-41080419D03*
%TD*%
D10*
%TO.P,J35,1,Pin_1*%
%TO.N,Net-(J35-Pad1)*%
X167400000Y-40400000D03*
%TD*%
%TO.P,J37,1,Pin_1*%
%TO.N,Net-(J37-Pad1)*%
X167300000Y-83100000D03*
%TD*%
%TO.P,J23,1,Pin_1*%
%TO.N,ATMEGA_3_RXD*%
X181000000Y-35400000D03*
%TD*%
%TO.P,J7,1,Pin_1*%
%TO.N,ATMEGA_3_LCD_LED*%
X171300000Y-68475000D03*
D13*
%TO.P,J7,2,Pin_2*%
%TO.N,ATMEGA_3_LCD_SCK*%
X171300000Y-65935000D03*
%TO.P,J7,3,Pin_3*%
%TO.N,ATMEGA_3_LCD_SDA*%
X171300000Y-63395000D03*
%TO.P,J7,4,Pin_4*%
%TO.N,ATMEGA_3_LCD_A0*%
X171300000Y-60855000D03*
%TO.P,J7,5,Pin_5*%
%TO.N,ATMEGA_3_LCD_RESET*%
X171300000Y-58315000D03*
%TO.P,J7,6,Pin_6*%
%TO.N,ATMEGA_3_LCD_CS*%
X171300000Y-55775000D03*
%TO.P,J7,7,Pin_7*%
%TO.N,GND*%
X171300000Y-53235000D03*
%TO.P,J7,8,Pin_8*%
%TO.N,+5V*%
X171300000Y-50695000D03*
%TD*%
D10*
%TO.P,J10,1,Pin_1*%
%TO.N,Net-(J10-Pad1)*%
X220000000Y-83000000D03*
%TD*%
%TO.P,J29,1,Pin_1*%
%TO.N,Net-(J29-Pad1)*%
X197200000Y-35200000D03*
%TD*%
%TO.P,J19,1,Pin_1*%
%TO.N,Net-(J19-Pad1)*%
X224600000Y-35200000D03*
%TD*%
%TO.P,J13,1,Pin_1*%
%TO.N,Net-(J13-Pad1)*%
X230900000Y-83000000D03*
%TD*%
%TO.P,J31,1,Pin_1*%
%TO.N,Net-(J31-Pad1)*%
X246200000Y-61800000D03*
%TD*%
%TO.P,J8,1,Pin_1*%
%TO.N,Net-(J8-Pad1)*%
X217300000Y-35200000D03*
%TD*%
D16*
%TO.P,U4,1,~{RESET}/PC6*%
%TO.N,ATMEGA_RESET*%
X189200000Y-43900000D03*
D17*
%TO.P,U4,2,PD0*%
%TO.N,ATMEGA_2_RXD*%
X189200000Y-46440000D03*
%TO.P,U4,3,PD1*%
%TO.N,ATMEGA_2_TXD*%
X189200000Y-48980000D03*
%TO.P,U4,4,PD2*%
%TO.N,ATMEGA_2_DRDY*%
X189200000Y-51520000D03*
%TO.P,U4,5,PD3*%
%TO.N,unconnected-(U4-Pad5)*%
X189200000Y-54060000D03*
%TO.P,U4,6,PD4*%
%TO.N,ATMEGA_2_PWDN_RESET*%
X189200000Y-56600000D03*
%TO.P,U4,7,VCC*%
%TO.N,+5V*%
X189200000Y-59140000D03*
%TO.P,U4,8,GND*%
%TO.N,GND*%
X189200000Y-61680000D03*
%TO.P,U4,9,XTAL1/PB6*%
%TO.N,ATMEGA_2_CRYSTAL_IN*%
X189200000Y-64220000D03*
%TO.P,U4,10,XTAL2/PB7*%
%TO.N,ATMEGA_2_CRYSTAL_OUT*%
X189200000Y-66760000D03*
%TO.P,U4,11,PD5*%
%TO.N,ATMEGA_2_START*%
X189200000Y-69300000D03*
%TO.P,U4,12,PD6*%
%TO.N,Net-(J38-Pad1)*%
X189200000Y-71840000D03*
%TO.P,U4,13,PD7*%
%TO.N,ATMEGA_2_CS*%
X189200000Y-74380000D03*
%TO.P,U4,14,PB0*%
%TO.N,Net-(J15-Pad1)*%
X189200000Y-76920000D03*
%TO.P,U4,15,PB1*%
%TO.N,Net-(J18-Pad1)*%
X196820000Y-76920000D03*
%TO.P,U4,16,PB2*%
%TO.N,Net-(U4-Pad16)*%
X196820000Y-74380000D03*
%TO.P,U4,17,PB3*%
%TO.N,ATMEGA_2_MOSI*%
X196820000Y-71840000D03*
%TO.P,U4,18,PB4*%
%TO.N,ATMEGA_2_MISO*%
X196820000Y-69300000D03*
%TO.P,U4,19,PB5*%
%TO.N,ATMEGA_2_SCK*%
X196820000Y-66760000D03*
%TO.P,U4,20,AVCC*%
%TO.N,unconnected-(U4-Pad20)*%
X196820000Y-64220000D03*
%TO.P,U4,21,AREF*%
%TO.N,unconnected-(U4-Pad21)*%
X196820000Y-61680000D03*
%TO.P,U4,22,GND*%
%TO.N,GND*%
X196820000Y-59140000D03*
%TO.P,U4,23,PC0*%
%TO.N,Net-(J24-Pad1)*%
X196820000Y-56600000D03*
%TO.P,U4,24,PC1*%
%TO.N,Net-(J25-Pad1)*%
X196820000Y-54060000D03*
%TO.P,U4,25,PC2*%
%TO.N,Net-(J26-Pad1)*%
X196820000Y-51520000D03*
%TO.P,U4,26,PC3*%
%TO.N,unconnected-(U4-Pad26)*%
X196820000Y-48980000D03*
%TO.P,U4,27,PC4*%
%TO.N,unconnected-(U4-Pad27)*%
X196820000Y-46440000D03*
%TO.P,U4,28,PC5*%
%TO.N,Net-(J29-Pad1)*%
X196820000Y-43900000D03*
%TD*%
D10*
%TO.P,J28,1,Pin_1*%
%TO.N,ATMEGA_2_TXD*%
X193600000Y-35200000D03*
%TD*%
%TO.P,J36,1,Pin_1*%
%TO.N,Net-(J36-Pad1)*%
X149900000Y-73100000D03*
%TD*%
D15*
%TO.P,H1,1,1*%
%TO.N,GND*%
X151319581Y-36519581D03*
D14*
X153600000Y-38800000D03*
D15*
X151319581Y-41080419D03*
X155880419Y-41080419D03*
X150375000Y-38800000D03*
X155880419Y-36519581D03*
X153600000Y-35575000D03*
X153600000Y-42025000D03*
X156825000Y-38800000D03*
%TD*%
D10*
%TO.P,J39,1,Pin_1*%
%TO.N,Net-(J39-Pad1)*%
X160100000Y-83100000D03*
%TD*%
%TO.P,J15,1,Pin_1*%
%TO.N,Net-(J15-Pad1)*%
X194900000Y-83100000D03*
%TD*%
%TO.P,J43,1,Pin_1*%
%TO.N,+5V*%
X177290000Y-46720000D03*
%TD*%
D16*
%TO.P,U3,1,~{RESET}/PC6*%
%TO.N,ATMEGA_RESET*%
X235800000Y-69100000D03*
D17*
%TO.P,U3,2,PD0*%
%TO.N,ATMEGA_1_RXD*%
X235800000Y-66560000D03*
%TO.P,U3,3,PD1*%
%TO.N,ATMEGA_1_TXD*%
X235800000Y-64020000D03*
%TO.P,U3,4,PD2*%
%TO.N,Net-(J31-Pad1)*%
X235800000Y-61480000D03*
%TO.P,U3,5,PD3*%
%TO.N,Net-(J34-Pad1)*%
X235800000Y-58940000D03*
%TO.P,U3,6,PD4*%
%TO.N,ATMEGA_1_PWDN_RESET*%
X235800000Y-56400000D03*
%TO.P,U3,7,VCC*%
%TO.N,+5V*%
X235800000Y-53860000D03*
%TO.P,U3,8,GND*%
%TO.N,GND*%
X235800000Y-51320000D03*
%TO.P,U3,9,XTAL1/PB6*%
%TO.N,ATMEGA_1_CRYSTAL_IN*%
X235800000Y-48780000D03*
%TO.P,U3,10,XTAL2/PB7*%
%TO.N,ATMEGA_1_CRYSTAL_OUT*%
X235800000Y-46240000D03*
%TO.P,U3,11,PD5*%
%TO.N,ATMEGA_1_START*%
X235800000Y-43700000D03*
%TO.P,U3,12,PD6*%
%TO.N,ATMEGA_1_DRDY*%
X235800000Y-41160000D03*
%TO.P,U3,13,PD7*%
%TO.N,ATMEGA_1_CS*%
X235800000Y-38620000D03*
%TO.P,U3,14,PB0*%
%TO.N,Net-(J16-Pad1)*%
X235800000Y-36080000D03*
%TO.P,U3,15,PB1*%
%TO.N,Net-(J19-Pad1)*%
X228180000Y-36080000D03*
%TO.P,U3,16,PB2*%
%TO.N,Net-(J21-Pad1)*%
X228180000Y-38620000D03*
%TO.P,U3,17,PB3*%
%TO.N,ATMEGA_1_MOSI*%
X228180000Y-41160000D03*
%TO.P,U3,18,PB4*%
%TO.N,ATMEGA_1_MISO*%
X228180000Y-43700000D03*
%TO.P,U3,19,PB5*%
%TO.N,ATMEGA_1_SCK*%
X228180000Y-46240000D03*
%TO.P,U3,20,AVCC*%
%TO.N,unconnected-(U3-Pad20)*%
X228180000Y-48780000D03*
%TO.P,U3,21,AREF*%
%TO.N,unconnected-(U3-Pad21)*%
X228180000Y-51320000D03*
%TO.P,U3,22,GND*%
%TO.N,GND*%
X228180000Y-53860000D03*
%TO.P,U3,23,PC0*%
%TO.N,Net-(J8-Pad1)*%
X228180000Y-56400000D03*
%TO.P,U3,24,PC1*%
%TO.N,Net-(J9-Pad1)*%
X228180000Y-58940000D03*
%TO.P,U3,25,PC2*%
%TO.N,Net-(J10-Pad1)*%
X228180000Y-61480000D03*
%TO.P,U3,26,PC3*%
%TO.N,unconnected-(U3-Pad26)*%
X228180000Y-64020000D03*
%TO.P,U3,27,PC4*%
%TO.N,unconnected-(U3-Pad27)*%
X228180000Y-66560000D03*
%TO.P,U3,28,PC5*%
%TO.N,Net-(J13-Pad1)*%
X228180000Y-69100000D03*
%TD*%
D10*
%TO.P,J25,1,Pin_1*%
%TO.N,Net-(J25-Pad1)*%
X205200000Y-35200000D03*
%TD*%
%TO.P,J34,1,Pin_1*%
%TO.N,Net-(J34-Pad1)*%
X246200000Y-58200000D03*
%TD*%
%TO.P,J3,1,Pin_1*%
%TO.N,+5V*%
X246450000Y-73000000D03*
D13*
%TO.P,J3,2,Pin_2*%
%TO.N,ATMEGA_1_PWDN_RESET*%
X243910000Y-73000000D03*
%TO.P,J3,3,Pin_3*%
%TO.N,ATMEGA_1_START*%
X241370000Y-73000000D03*
%TO.P,J3,4,Pin_4*%
%TO.N,ATMEGA_1_DRDY*%
X238830000Y-73000000D03*
%TO.P,J3,5,Pin_5*%
%TO.N,ATMEGA_1_CS*%
X236290000Y-73000000D03*
%TO.P,J3,6,Pin_6*%
%TO.N,ATMEGA_1_MOSI*%
X233750000Y-73000000D03*
%TO.P,J3,7,Pin_7*%
%TO.N,ATMEGA_1_MISO*%
X231210000Y-73000000D03*
%TO.P,J3,8,Pin_8*%
%TO.N,ATMEGA_1_SCK*%
X228670000Y-73000000D03*
%TO.P,J3,9,Pin_9*%
%TO.N,unconnected-(J3-Pad9)*%
X226130000Y-73000000D03*
%TO.P,J3,10,Pin_10*%
%TO.N,unconnected-(J3-Pad10)*%
X223590000Y-73000000D03*
%TO.P,J3,11,Pin_11*%
%TO.N,unconnected-(J3-Pad11)*%
X221050000Y-73000000D03*
%TO.P,J3,12,Pin_12*%
%TO.N,GND*%
X218510000Y-73000000D03*
%TD*%
D10*
%TO.P,J11,1,Pin_1*%
%TO.N,ATMEGA_1_TXD*%
X223700000Y-83000000D03*
%TD*%
%TO.P,J5,1,Pin_1*%
%TO.N,+5V*%
X171150000Y-83100000D03*
D13*
%TO.P,J5,2,Pin_2*%
%TO.N,GND*%
X173690000Y-83100000D03*
%TO.P,J5,3,Pin_3*%
%TO.N,unconnected-(J5-Pad3)*%
X176230000Y-83100000D03*
%TO.P,J5,4,Pin_4*%
%TO.N,unconnected-(J5-Pad4)*%
X178770000Y-83100000D03*
%TO.P,J5,5,Pin_5*%
%TO.N,ATMEGA_3_SCL_1*%
X181310000Y-83100000D03*
%TO.P,J5,6,Pin_6*%
%TO.N,ATMEGA_3_SDA_1*%
X183850000Y-83100000D03*
%TD*%
D18*
%TO.N,GND*%
X191000000Y-61700000D03*
X166400000Y-58600000D03*
X162800000Y-62000000D03*
X186900000Y-66200000D03*
X226480000Y-53240000D03*
X158000000Y-57000000D03*
X202184000Y-73660000D03*
X190980000Y-60690000D03*
X217830000Y-75390000D03*
X152900000Y-65540000D03*
X195000000Y-60280000D03*
X244700000Y-51700000D03*
X239230000Y-52390000D03*
X182000000Y-61100000D03*
X162700000Y-37700000D03*
X155600000Y-60900000D03*
X172510000Y-80770000D03*
X173200000Y-52100000D03*
X194500000Y-59300000D03*
X174840000Y-80800000D03*
X238900000Y-47214500D03*
X156700000Y-69100000D03*
X194860000Y-58150000D03*
X173110000Y-54340000D03*
X173700000Y-80700000D03*
X166400000Y-59750000D03*
X157570000Y-55470000D03*
X220300000Y-70340000D03*
X238100000Y-51700000D03*
X151000000Y-64800000D03*
X152300000Y-64750000D03*
X154700000Y-61800000D03*
X202184000Y-74676000D03*
X206900000Y-73500000D03*
X219210000Y-75380000D03*
X207010000Y-72390000D03*
X219010000Y-70300000D03*
X225820000Y-52220000D03*
X242800000Y-51700000D03*
X213000000Y-79000000D03*
X155950000Y-49160000D03*
X162720000Y-36610000D03*
X180000000Y-61700000D03*
X214190000Y-79570000D03*
X155950000Y-52600000D03*
X157600000Y-60900000D03*
X191000000Y-62690000D03*
X158710000Y-61880000D03*
X151245000Y-65805000D03*
%TO.N,+5V*%
X155000000Y-59300000D03*
X158490000Y-59340000D03*
X201670000Y-44350000D03*
X172730000Y-48190000D03*
X169990000Y-80720000D03*
X237920000Y-55050000D03*
X201650000Y-46700000D03*
X201676000Y-45600000D03*
X157010000Y-58810000D03*
X247340000Y-70560000D03*
X160180000Y-36710000D03*
X190890000Y-58080000D03*
X245970000Y-75300000D03*
X155620000Y-58400000D03*
X171100000Y-80700000D03*
X191470000Y-58820000D03*
X237900000Y-53900000D03*
X208460000Y-79190000D03*
X247380000Y-75310000D03*
X171100000Y-48100000D03*
X210710000Y-79150000D03*
X209350000Y-79040000D03*
X190890000Y-59610000D03*
X160200000Y-37600000D03*
X245700000Y-70560000D03*
X162900000Y-59300000D03*
%TO.N,ATMEGA_1_RXD*%
X225650000Y-66600000D03*
%TO.N,ATMEGA_1_TXD*%
X225600000Y-64000000D03*
%TO.N,Net-(J34-Pad1)*%
X241400000Y-57800000D03*
X239000000Y-59200000D03*
%TO.N,Net-(J31-Pad1)*%
X239800000Y-61700000D03*
X242900000Y-61700000D03*
%TO.N,Net-(J25-Pad1)*%
X194200000Y-54100000D03*
X198600000Y-52300000D03*
%TO.N,Net-(J24-Pad1)*%
X199900000Y-56800000D03*
X200900000Y-53000000D03*
%TD*%
D19*
%TO.N,ATMEGA_3_TXD*%
X184700000Y-36000000D02*
X184700000Y-35400000D01*
X171990000Y-42220000D02*
X173860000Y-40350000D01*
X167620000Y-42220000D02*
X171990000Y-42220000D01*
X180350000Y-40350000D02*
X184700000Y-36000000D01*
X160660000Y-49180000D02*
X167620000Y-42220000D01*
X160600000Y-49180000D02*
X160660000Y-49180000D01*
X173860000Y-40350000D02*
X180350000Y-40350000D01*
%TO.N,ATMEGA_3_RXD*%
X162865489Y-38674511D02*
X162160000Y-39380000D01*
X162160000Y-45080000D02*
X160600000Y-46640000D01*
X177725489Y-38674511D02*
X162865489Y-38674511D01*
X162160000Y-39380000D02*
X162160000Y-45080000D01*
X181000000Y-35400000D02*
X177725489Y-38674511D01*
D20*
%TO.N,ATMEGA_RESET*%
X158470000Y-46230000D02*
X160600000Y-44100000D01*
X158470000Y-49580000D02*
X158470000Y-46230000D01*
X159300000Y-50410000D02*
X158470000Y-49580000D01*
X161740000Y-50410000D02*
X159300000Y-50410000D01*
X164270000Y-47880000D02*
X161740000Y-50410000D01*
X169310000Y-47880000D02*
X164270000Y-47880000D01*
X174240000Y-42950000D02*
X169310000Y-47880000D01*
X174240000Y-42920000D02*
X174240000Y-42950000D01*
X174470000Y-42690000D02*
X174240000Y-42920000D01*
X187990000Y-42690000D02*
X174470000Y-42690000D01*
X189200000Y-43900000D02*
X187990000Y-42690000D01*
X230700000Y-71100000D02*
X212600000Y-71100000D01*
X235200000Y-69000000D02*
X232800000Y-69000000D01*
X235300000Y-69100000D02*
X235200000Y-69000000D01*
X204200000Y-42000000D02*
X191100000Y-42000000D01*
X235800000Y-69100000D02*
X235300000Y-69100000D01*
X232800000Y-69000000D02*
X230700000Y-71100000D01*
X207000000Y-65500000D02*
X207000000Y-44800000D01*
X207000000Y-44800000D02*
X204200000Y-42000000D01*
X212600000Y-71100000D02*
X207000000Y-65500000D01*
X191100000Y-42000000D02*
X189200000Y-43900000D01*
D21*
%TO.N,ATMEGA_1_RXD*%
X225650000Y-66600000D02*
X226859511Y-67809511D01*
X226859511Y-67809511D02*
X234550489Y-67809511D01*
X234550489Y-67809511D02*
X235800000Y-66560000D01*
%TO.N,ATMEGA_1_TXD*%
X225600000Y-64000000D02*
X226869511Y-65269511D01*
X226869511Y-65269511D02*
X234550489Y-65269511D01*
X234550489Y-65269511D02*
X235800000Y-64020000D01*
D20*
%TO.N,Net-(J34-Pad1)*%
X240000000Y-59200000D02*
X241400000Y-57800000D01*
X239000000Y-59200000D02*
X240000000Y-59200000D01*
%TO.N,Net-(J31-Pad1)*%
X242900000Y-61700000D02*
X239800000Y-61700000D01*
%TO.N,Net-(J25-Pad1)*%
X194200000Y-53400000D02*
X194200000Y-54100000D01*
X198000000Y-52900000D02*
X194700000Y-52900000D01*
X194700000Y-52900000D02*
X194200000Y-53400000D01*
X198600000Y-52300000D02*
X198000000Y-52900000D01*
%TO.N,Net-(J24-Pad1)*%
X200900000Y-53000000D02*
X200900000Y-55800000D01*
X200900000Y-55800000D02*
X199900000Y-56800000D01*
%TD*%
M02*
