%TF.GenerationSoftware,KiCad,Pcbnew,(6.0.2)*%
%TF.CreationDate,2022-03-17T15:01:17+00:00*%
%TF.ProjectId,PROJ324-Ard1,50524f4a-3332-4342-9d41-7264312e6b69,rev?*%
%TF.SameCoordinates,Original*%
%TF.FileFunction,Soldermask,Bot*%
%TF.FilePolarity,Negative*%
%FSLAX46Y46*%
G04 Gerber Fmt 4.6, Leading zero omitted, Abs format (unit mm)*
G04 Created by KiCad (PCBNEW (6.0.2)) date 2022-03-17 15:01:17*
%MOMM*%
%LPD*%
G01*
G04 APERTURE LIST*
%ADD10R,1.700000X1.700000*%
%ADD11C,1.450000*%
%ADD12O,1.200000X1.900000*%
%ADD13O,1.700000X1.700000*%
%ADD14C,8.600000*%
%ADD15C,0.900000*%
%ADD16R,1.600000X1.600000*%
%ADD17O,1.600000X1.600000*%
G04 APERTURE END LIST*
D10*
%TO.C,J33*%
X184700000Y-35400000D03*
%TD*%
%TO.C,J44*%
X210170000Y-41860000D03*
%TD*%
%TO.C,J21*%
X221000000Y-35200000D03*
%TD*%
%TO.C,J27*%
X190000000Y-35200000D03*
%TD*%
%TO.C,J12*%
X227300000Y-83000000D03*
%TD*%
%TO.C,J20*%
X205700000Y-83100000D03*
%TD*%
D11*
%TO.C,J1*%
X209510000Y-80967500D03*
D12*
X215510000Y-83667500D03*
X208510000Y-83667500D03*
D11*
X214510000Y-80967500D03*
%TD*%
D10*
%TO.C,J45*%
X234780000Y-83040000D03*
%TD*%
%TO.C,J38*%
X198500000Y-83100000D03*
%TD*%
%TO.C,J40*%
X213900000Y-41830000D03*
%TD*%
%TO.C,J18*%
X202100000Y-83100000D03*
%TD*%
%TO.C,J24*%
X209400000Y-35000000D03*
%TD*%
%TO.C,J32*%
X163800000Y-40400000D03*
%TD*%
%TO.C,J22*%
X191300000Y-83100000D03*
%TD*%
%TO.C,J9*%
X213600000Y-35200000D03*
%TD*%
%TO.C,J26*%
X200800000Y-35200000D03*
%TD*%
%TO.C,J30*%
X160200000Y-40400000D03*
%TD*%
%TO.C,J4*%
X204600000Y-73400000D03*
D13*
X204600000Y-70860000D03*
X204600000Y-68320000D03*
X204600000Y-65780000D03*
X204600000Y-63240000D03*
X204600000Y-60700000D03*
X204600000Y-58160000D03*
X204600000Y-55620000D03*
X204600000Y-53080000D03*
X204600000Y-50540000D03*
X204600000Y-48000000D03*
X204600000Y-45460000D03*
%TD*%
D10*
%TO.C,J16*%
X246200000Y-54600000D03*
%TD*%
%TO.C,J42*%
X180940000Y-46760000D03*
%TD*%
%TO.C,J41*%
X234820000Y-78160000D03*
%TD*%
D14*
%TO.C,H3*%
X242400000Y-79600000D03*
D15*
X242400000Y-76375000D03*
X240119581Y-81880419D03*
X239175000Y-79600000D03*
X244680419Y-77319581D03*
X245625000Y-79600000D03*
X240119581Y-77319581D03*
X244680419Y-81880419D03*
X242400000Y-82825000D03*
%TD*%
%TO.C,H2*%
X151119581Y-81880419D03*
D14*
X153400000Y-79600000D03*
D15*
X155680419Y-77319581D03*
X156625000Y-79600000D03*
X153400000Y-76375000D03*
X151119581Y-77319581D03*
X155680419Y-81880419D03*
X150175000Y-79600000D03*
X153400000Y-82825000D03*
%TD*%
D10*
%TO.C,J17*%
X187700000Y-83100000D03*
%TD*%
%TO.C,J6*%
X160180000Y-35300000D03*
D13*
X162720000Y-35300000D03*
X165260000Y-35300000D03*
X167800000Y-35300000D03*
X170340000Y-35300000D03*
X172880000Y-35300000D03*
%TD*%
D10*
%TO.C,J14*%
X163700000Y-83100000D03*
%TD*%
D16*
%TO.C,U5*%
X160600000Y-44100000D03*
D17*
X160600000Y-46640000D03*
X160600000Y-49180000D03*
X160600000Y-51720000D03*
X160600000Y-54260000D03*
X160600000Y-56800000D03*
X160600000Y-59340000D03*
X160600000Y-61880000D03*
X160600000Y-64420000D03*
X160600000Y-66960000D03*
X160600000Y-69500000D03*
X160600000Y-72040000D03*
X160600000Y-74580000D03*
X160600000Y-77120000D03*
X168220000Y-77120000D03*
X168220000Y-74580000D03*
X168220000Y-72040000D03*
X168220000Y-69500000D03*
X168220000Y-66960000D03*
X168220000Y-64420000D03*
X168220000Y-61880000D03*
X168220000Y-59340000D03*
X168220000Y-56800000D03*
X168220000Y-54260000D03*
X168220000Y-51720000D03*
X168220000Y-49180000D03*
X168220000Y-46640000D03*
X168220000Y-44100000D03*
%TD*%
D15*
%TO.C,H4*%
X244680419Y-36519581D03*
X245625000Y-38800000D03*
D14*
X242400000Y-38800000D03*
D15*
X242400000Y-35575000D03*
X244680419Y-41080419D03*
X242400000Y-42025000D03*
X239175000Y-38800000D03*
X240119581Y-36519581D03*
X240119581Y-41080419D03*
%TD*%
D10*
%TO.C,J35*%
X167400000Y-40400000D03*
%TD*%
%TO.C,J37*%
X167300000Y-83100000D03*
%TD*%
%TO.C,J23*%
X181000000Y-35400000D03*
%TD*%
%TO.C,J7*%
X171300000Y-68475000D03*
D13*
X171300000Y-65935000D03*
X171300000Y-63395000D03*
X171300000Y-60855000D03*
X171300000Y-58315000D03*
X171300000Y-55775000D03*
X171300000Y-53235000D03*
X171300000Y-50695000D03*
%TD*%
D10*
%TO.C,J10*%
X220000000Y-83000000D03*
%TD*%
%TO.C,J29*%
X197200000Y-35200000D03*
%TD*%
%TO.C,J19*%
X224600000Y-35200000D03*
%TD*%
%TO.C,J13*%
X230900000Y-83000000D03*
%TD*%
%TO.C,J31*%
X246200000Y-61800000D03*
%TD*%
%TO.C,J8*%
X217300000Y-35200000D03*
%TD*%
D16*
%TO.C,U4*%
X189200000Y-43900000D03*
D17*
X189200000Y-46440000D03*
X189200000Y-48980000D03*
X189200000Y-51520000D03*
X189200000Y-54060000D03*
X189200000Y-56600000D03*
X189200000Y-59140000D03*
X189200000Y-61680000D03*
X189200000Y-64220000D03*
X189200000Y-66760000D03*
X189200000Y-69300000D03*
X189200000Y-71840000D03*
X189200000Y-74380000D03*
X189200000Y-76920000D03*
X196820000Y-76920000D03*
X196820000Y-74380000D03*
X196820000Y-71840000D03*
X196820000Y-69300000D03*
X196820000Y-66760000D03*
X196820000Y-64220000D03*
X196820000Y-61680000D03*
X196820000Y-59140000D03*
X196820000Y-56600000D03*
X196820000Y-54060000D03*
X196820000Y-51520000D03*
X196820000Y-48980000D03*
X196820000Y-46440000D03*
X196820000Y-43900000D03*
%TD*%
D10*
%TO.C,J28*%
X193600000Y-35200000D03*
%TD*%
%TO.C,J36*%
X149900000Y-73100000D03*
%TD*%
D15*
%TO.C,H1*%
X151319581Y-36519581D03*
D14*
X153600000Y-38800000D03*
D15*
X151319581Y-41080419D03*
X155880419Y-41080419D03*
X150375000Y-38800000D03*
X155880419Y-36519581D03*
X153600000Y-35575000D03*
X153600000Y-42025000D03*
X156825000Y-38800000D03*
%TD*%
D10*
%TO.C,J39*%
X160100000Y-83100000D03*
%TD*%
%TO.C,J15*%
X194900000Y-83100000D03*
%TD*%
%TO.C,J43*%
X177290000Y-46720000D03*
%TD*%
D16*
%TO.C,U3*%
X235800000Y-69100000D03*
D17*
X235800000Y-66560000D03*
X235800000Y-64020000D03*
X235800000Y-61480000D03*
X235800000Y-58940000D03*
X235800000Y-56400000D03*
X235800000Y-53860000D03*
X235800000Y-51320000D03*
X235800000Y-48780000D03*
X235800000Y-46240000D03*
X235800000Y-43700000D03*
X235800000Y-41160000D03*
X235800000Y-38620000D03*
X235800000Y-36080000D03*
X228180000Y-36080000D03*
X228180000Y-38620000D03*
X228180000Y-41160000D03*
X228180000Y-43700000D03*
X228180000Y-46240000D03*
X228180000Y-48780000D03*
X228180000Y-51320000D03*
X228180000Y-53860000D03*
X228180000Y-56400000D03*
X228180000Y-58940000D03*
X228180000Y-61480000D03*
X228180000Y-64020000D03*
X228180000Y-66560000D03*
X228180000Y-69100000D03*
%TD*%
D10*
%TO.C,J25*%
X205200000Y-35200000D03*
%TD*%
%TO.C,J34*%
X246200000Y-58200000D03*
%TD*%
%TO.C,J3*%
X246450000Y-73000000D03*
D13*
X243910000Y-73000000D03*
X241370000Y-73000000D03*
X238830000Y-73000000D03*
X236290000Y-73000000D03*
X233750000Y-73000000D03*
X231210000Y-73000000D03*
X228670000Y-73000000D03*
X226130000Y-73000000D03*
X223590000Y-73000000D03*
X221050000Y-73000000D03*
X218510000Y-73000000D03*
%TD*%
D10*
%TO.C,J11*%
X223700000Y-83000000D03*
%TD*%
%TO.C,J5*%
X171150000Y-83100000D03*
D13*
X173690000Y-83100000D03*
X176230000Y-83100000D03*
X178770000Y-83100000D03*
X181310000Y-83100000D03*
X183850000Y-83100000D03*
%TD*%
M02*
