%TF.GenerationSoftware,KiCad,Pcbnew,(6.0.2)*%
%TF.CreationDate,2022-03-17T15:01:17+00:00*%
%TF.ProjectId,PROJ324-Ard1,50524f4a-3332-4342-9d41-7264312e6b69,rev?*%
%TF.SameCoordinates,Original*%
%TF.FileFunction,Legend,Top*%
%TF.FilePolarity,Positive*%
%FSLAX46Y46*%
G04 Gerber Fmt 4.6, Leading zero omitted, Abs format (unit mm)*
G04 Created by KiCad (PCBNEW (6.0.2)) date 2022-03-17 15:01:17*
%MOMM*%
%LPD*%
G01*
G04 APERTURE LIST*
%ADD10C,0.150000*%
%ADD11C,0.120000*%
G04 APERTURE END LIST*
D10*
X177356666Y-54052380D02*
X177356666Y-54766666D01*
X177309047Y-54909523D01*
X177213809Y-55004761D01*
X177070952Y-55052380D01*
X176975714Y-55052380D01*
X178309047Y-55052380D02*
X177832857Y-55052380D01*
X177832857Y-54052380D01*
X179213809Y-54957142D02*
X179166190Y-55004761D01*
X179023333Y-55052380D01*
X178928095Y-55052380D01*
X178785238Y-55004761D01*
X178690000Y-54909523D01*
X178642380Y-54814285D01*
X178594761Y-54623809D01*
X178594761Y-54480952D01*
X178642380Y-54290476D01*
X178690000Y-54195238D01*
X178785238Y-54100000D01*
X178928095Y-54052380D01*
X179023333Y-54052380D01*
X179166190Y-54100000D01*
X179213809Y-54147619D01*
X179928095Y-54052380D02*
X179928095Y-54766666D01*
X179880476Y-54909523D01*
X179785238Y-55004761D01*
X179642380Y-55052380D01*
X179547142Y-55052380D01*
X180880476Y-55052380D02*
X180404285Y-55052380D01*
X180404285Y-54052380D01*
X181785238Y-54957142D02*
X181737619Y-55004761D01*
X181594761Y-55052380D01*
X181499523Y-55052380D01*
X181356666Y-55004761D01*
X181261428Y-54909523D01*
X181213809Y-54814285D01*
X181166190Y-54623809D01*
X181166190Y-54480952D01*
X181213809Y-54290476D01*
X181261428Y-54195238D01*
X181356666Y-54100000D01*
X181499523Y-54052380D01*
X181594761Y-54052380D01*
X181737619Y-54100000D01*
X181785238Y-54147619D01*
X182499523Y-54052380D02*
X182499523Y-54766666D01*
X182451904Y-54909523D01*
X182356666Y-55004761D01*
X182213809Y-55052380D01*
X182118571Y-55052380D01*
X183451904Y-55052380D02*
X182975714Y-55052380D01*
X182975714Y-54052380D01*
X184356666Y-54957142D02*
X184309047Y-55004761D01*
X184166190Y-55052380D01*
X184070952Y-55052380D01*
X183928095Y-55004761D01*
X183832857Y-54909523D01*
X183785238Y-54814285D01*
X183737619Y-54623809D01*
X183737619Y-54480952D01*
X183785238Y-54290476D01*
X183832857Y-54195238D01*
X183928095Y-54100000D01*
X184070952Y-54052380D01*
X184166190Y-54052380D01*
X184309047Y-54100000D01*
X184356666Y-54147619D01*
%TO.C,J33*%
X184090476Y-37452380D02*
X184090476Y-38166666D01*
X184042857Y-38309523D01*
X183947619Y-38404761D01*
X183804761Y-38452380D01*
X183709523Y-38452380D01*
X184471428Y-37452380D02*
X185090476Y-37452380D01*
X184757142Y-37833333D01*
X184900000Y-37833333D01*
X184995238Y-37880952D01*
X185042857Y-37928571D01*
X185090476Y-38023809D01*
X185090476Y-38261904D01*
X185042857Y-38357142D01*
X184995238Y-38404761D01*
X184900000Y-38452380D01*
X184614285Y-38452380D01*
X184519047Y-38404761D01*
X184471428Y-38357142D01*
X185423809Y-37452380D02*
X186042857Y-37452380D01*
X185709523Y-37833333D01*
X185852380Y-37833333D01*
X185947619Y-37880952D01*
X185995238Y-37928571D01*
X186042857Y-38023809D01*
X186042857Y-38261904D01*
X185995238Y-38357142D01*
X185947619Y-38404761D01*
X185852380Y-38452380D01*
X185566666Y-38452380D01*
X185471428Y-38404761D01*
X185423809Y-38357142D01*
%TO.C,J44*%
X209360476Y-38982380D02*
X209360476Y-39696666D01*
X209312857Y-39839523D01*
X209217619Y-39934761D01*
X209074761Y-39982380D01*
X208979523Y-39982380D01*
X210265238Y-39315714D02*
X210265238Y-39982380D01*
X210027142Y-38934761D02*
X209789047Y-39649047D01*
X210408095Y-39649047D01*
X211217619Y-39315714D02*
X211217619Y-39982380D01*
X210979523Y-38934761D02*
X210741428Y-39649047D01*
X211360476Y-39649047D01*
%TO.C,J21*%
X219890476Y-36952380D02*
X219890476Y-37666666D01*
X219842857Y-37809523D01*
X219747619Y-37904761D01*
X219604761Y-37952380D01*
X219509523Y-37952380D01*
X220319047Y-37047619D02*
X220366666Y-37000000D01*
X220461904Y-36952380D01*
X220700000Y-36952380D01*
X220795238Y-37000000D01*
X220842857Y-37047619D01*
X220890476Y-37142857D01*
X220890476Y-37238095D01*
X220842857Y-37380952D01*
X220271428Y-37952380D01*
X220890476Y-37952380D01*
X221842857Y-37952380D02*
X221271428Y-37952380D01*
X221557142Y-37952380D02*
X221557142Y-36952380D01*
X221461904Y-37095238D01*
X221366666Y-37190476D01*
X221271428Y-37238095D01*
%TO.C,R10*%
X151744642Y-57202380D02*
X151411309Y-56726190D01*
X151173214Y-57202380D02*
X151173214Y-56202380D01*
X151554166Y-56202380D01*
X151649404Y-56250000D01*
X151697023Y-56297619D01*
X151744642Y-56392857D01*
X151744642Y-56535714D01*
X151697023Y-56630952D01*
X151649404Y-56678571D01*
X151554166Y-56726190D01*
X151173214Y-56726190D01*
X152697023Y-57202380D02*
X152125595Y-57202380D01*
X152411309Y-57202380D02*
X152411309Y-56202380D01*
X152316071Y-56345238D01*
X152220833Y-56440476D01*
X152125595Y-56488095D01*
X153316071Y-56202380D02*
X153411309Y-56202380D01*
X153506547Y-56250000D01*
X153554166Y-56297619D01*
X153601785Y-56392857D01*
X153649404Y-56583333D01*
X153649404Y-56821428D01*
X153601785Y-57011904D01*
X153554166Y-57107142D01*
X153506547Y-57154761D01*
X153411309Y-57202380D01*
X153316071Y-57202380D01*
X153220833Y-57154761D01*
X153173214Y-57107142D01*
X153125595Y-57011904D01*
X153077976Y-56821428D01*
X153077976Y-56583333D01*
X153125595Y-56392857D01*
X153173214Y-56297619D01*
X153220833Y-56250000D01*
X153316071Y-56202380D01*
%TO.C,J27*%
X188990476Y-36852380D02*
X188990476Y-37566666D01*
X188942857Y-37709523D01*
X188847619Y-37804761D01*
X188704761Y-37852380D01*
X188609523Y-37852380D01*
X189419047Y-36947619D02*
X189466666Y-36900000D01*
X189561904Y-36852380D01*
X189800000Y-36852380D01*
X189895238Y-36900000D01*
X189942857Y-36947619D01*
X189990476Y-37042857D01*
X189990476Y-37138095D01*
X189942857Y-37280952D01*
X189371428Y-37852380D01*
X189990476Y-37852380D01*
X190323809Y-36852380D02*
X190990476Y-36852380D01*
X190561904Y-37852380D01*
%TO.C,J12*%
X226490476Y-80122380D02*
X226490476Y-80836666D01*
X226442857Y-80979523D01*
X226347619Y-81074761D01*
X226204761Y-81122380D01*
X226109523Y-81122380D01*
X227490476Y-81122380D02*
X226919047Y-81122380D01*
X227204761Y-81122380D02*
X227204761Y-80122380D01*
X227109523Y-80265238D01*
X227014285Y-80360476D01*
X226919047Y-80408095D01*
X227871428Y-80217619D02*
X227919047Y-80170000D01*
X228014285Y-80122380D01*
X228252380Y-80122380D01*
X228347619Y-80170000D01*
X228395238Y-80217619D01*
X228442857Y-80312857D01*
X228442857Y-80408095D01*
X228395238Y-80550952D01*
X227823809Y-81122380D01*
X228442857Y-81122380D01*
%TO.C,J20*%
X204890476Y-80222380D02*
X204890476Y-80936666D01*
X204842857Y-81079523D01*
X204747619Y-81174761D01*
X204604761Y-81222380D01*
X204509523Y-81222380D01*
X205319047Y-80317619D02*
X205366666Y-80270000D01*
X205461904Y-80222380D01*
X205700000Y-80222380D01*
X205795238Y-80270000D01*
X205842857Y-80317619D01*
X205890476Y-80412857D01*
X205890476Y-80508095D01*
X205842857Y-80650952D01*
X205271428Y-81222380D01*
X205890476Y-81222380D01*
X206509523Y-80222380D02*
X206604761Y-80222380D01*
X206700000Y-80270000D01*
X206747619Y-80317619D01*
X206795238Y-80412857D01*
X206842857Y-80603333D01*
X206842857Y-80841428D01*
X206795238Y-81031904D01*
X206747619Y-81127142D01*
X206700000Y-81174761D01*
X206604761Y-81222380D01*
X206509523Y-81222380D01*
X206414285Y-81174761D01*
X206366666Y-81127142D01*
X206319047Y-81031904D01*
X206271428Y-80841428D01*
X206271428Y-80603333D01*
X206319047Y-80412857D01*
X206366666Y-80317619D01*
X206414285Y-80270000D01*
X206509523Y-80222380D01*
%TO.C,J1*%
X211676666Y-78769880D02*
X211676666Y-79484166D01*
X211629047Y-79627023D01*
X211533809Y-79722261D01*
X211390952Y-79769880D01*
X211295714Y-79769880D01*
X212676666Y-79769880D02*
X212105238Y-79769880D01*
X212390952Y-79769880D02*
X212390952Y-78769880D01*
X212295714Y-78912738D01*
X212200476Y-79007976D01*
X212105238Y-79055595D01*
%TO.C,J45*%
X233970476Y-80162380D02*
X233970476Y-80876666D01*
X233922857Y-81019523D01*
X233827619Y-81114761D01*
X233684761Y-81162380D01*
X233589523Y-81162380D01*
X234875238Y-80495714D02*
X234875238Y-81162380D01*
X234637142Y-80114761D02*
X234399047Y-80829047D01*
X235018095Y-80829047D01*
X235875238Y-80162380D02*
X235399047Y-80162380D01*
X235351428Y-80638571D01*
X235399047Y-80590952D01*
X235494285Y-80543333D01*
X235732380Y-80543333D01*
X235827619Y-80590952D01*
X235875238Y-80638571D01*
X235922857Y-80733809D01*
X235922857Y-80971904D01*
X235875238Y-81067142D01*
X235827619Y-81114761D01*
X235732380Y-81162380D01*
X235494285Y-81162380D01*
X235399047Y-81114761D01*
X235351428Y-81067142D01*
%TO.C,J38*%
X197690476Y-80222380D02*
X197690476Y-80936666D01*
X197642857Y-81079523D01*
X197547619Y-81174761D01*
X197404761Y-81222380D01*
X197309523Y-81222380D01*
X198071428Y-80222380D02*
X198690476Y-80222380D01*
X198357142Y-80603333D01*
X198500000Y-80603333D01*
X198595238Y-80650952D01*
X198642857Y-80698571D01*
X198690476Y-80793809D01*
X198690476Y-81031904D01*
X198642857Y-81127142D01*
X198595238Y-81174761D01*
X198500000Y-81222380D01*
X198214285Y-81222380D01*
X198119047Y-81174761D01*
X198071428Y-81127142D01*
X199261904Y-80650952D02*
X199166666Y-80603333D01*
X199119047Y-80555714D01*
X199071428Y-80460476D01*
X199071428Y-80412857D01*
X199119047Y-80317619D01*
X199166666Y-80270000D01*
X199261904Y-80222380D01*
X199452380Y-80222380D01*
X199547619Y-80270000D01*
X199595238Y-80317619D01*
X199642857Y-80412857D01*
X199642857Y-80460476D01*
X199595238Y-80555714D01*
X199547619Y-80603333D01*
X199452380Y-80650952D01*
X199261904Y-80650952D01*
X199166666Y-80698571D01*
X199119047Y-80746190D01*
X199071428Y-80841428D01*
X199071428Y-81031904D01*
X199119047Y-81127142D01*
X199166666Y-81174761D01*
X199261904Y-81222380D01*
X199452380Y-81222380D01*
X199547619Y-81174761D01*
X199595238Y-81127142D01*
X199642857Y-81031904D01*
X199642857Y-80841428D01*
X199595238Y-80746190D01*
X199547619Y-80698571D01*
X199452380Y-80650952D01*
%TO.C,Y2*%
X183523809Y-66376190D02*
X183523809Y-66852380D01*
X183190476Y-65852380D02*
X183523809Y-66376190D01*
X183857142Y-65852380D01*
X184142857Y-65947619D02*
X184190476Y-65900000D01*
X184285714Y-65852380D01*
X184523809Y-65852380D01*
X184619047Y-65900000D01*
X184666666Y-65947619D01*
X184714285Y-66042857D01*
X184714285Y-66138095D01*
X184666666Y-66280952D01*
X184095238Y-66852380D01*
X184714285Y-66852380D01*
%TO.C,J40*%
X213090476Y-38952380D02*
X213090476Y-39666666D01*
X213042857Y-39809523D01*
X212947619Y-39904761D01*
X212804761Y-39952380D01*
X212709523Y-39952380D01*
X213995238Y-39285714D02*
X213995238Y-39952380D01*
X213757142Y-38904761D02*
X213519047Y-39619047D01*
X214138095Y-39619047D01*
X214709523Y-38952380D02*
X214804761Y-38952380D01*
X214900000Y-39000000D01*
X214947619Y-39047619D01*
X214995238Y-39142857D01*
X215042857Y-39333333D01*
X215042857Y-39571428D01*
X214995238Y-39761904D01*
X214947619Y-39857142D01*
X214900000Y-39904761D01*
X214804761Y-39952380D01*
X214709523Y-39952380D01*
X214614285Y-39904761D01*
X214566666Y-39857142D01*
X214519047Y-39761904D01*
X214471428Y-39571428D01*
X214471428Y-39333333D01*
X214519047Y-39142857D01*
X214566666Y-39047619D01*
X214614285Y-39000000D01*
X214709523Y-38952380D01*
%TO.C,J18*%
X201290476Y-80222380D02*
X201290476Y-80936666D01*
X201242857Y-81079523D01*
X201147619Y-81174761D01*
X201004761Y-81222380D01*
X200909523Y-81222380D01*
X202290476Y-81222380D02*
X201719047Y-81222380D01*
X202004761Y-81222380D02*
X202004761Y-80222380D01*
X201909523Y-80365238D01*
X201814285Y-80460476D01*
X201719047Y-80508095D01*
X202861904Y-80650952D02*
X202766666Y-80603333D01*
X202719047Y-80555714D01*
X202671428Y-80460476D01*
X202671428Y-80412857D01*
X202719047Y-80317619D01*
X202766666Y-80270000D01*
X202861904Y-80222380D01*
X203052380Y-80222380D01*
X203147619Y-80270000D01*
X203195238Y-80317619D01*
X203242857Y-80412857D01*
X203242857Y-80460476D01*
X203195238Y-80555714D01*
X203147619Y-80603333D01*
X203052380Y-80650952D01*
X202861904Y-80650952D01*
X202766666Y-80698571D01*
X202719047Y-80746190D01*
X202671428Y-80841428D01*
X202671428Y-81031904D01*
X202719047Y-81127142D01*
X202766666Y-81174761D01*
X202861904Y-81222380D01*
X203052380Y-81222380D01*
X203147619Y-81174761D01*
X203195238Y-81127142D01*
X203242857Y-81031904D01*
X203242857Y-80841428D01*
X203195238Y-80746190D01*
X203147619Y-80698571D01*
X203052380Y-80650952D01*
%TO.C,J24*%
X208390476Y-37152380D02*
X208390476Y-37866666D01*
X208342857Y-38009523D01*
X208247619Y-38104761D01*
X208104761Y-38152380D01*
X208009523Y-38152380D01*
X208819047Y-37247619D02*
X208866666Y-37200000D01*
X208961904Y-37152380D01*
X209200000Y-37152380D01*
X209295238Y-37200000D01*
X209342857Y-37247619D01*
X209390476Y-37342857D01*
X209390476Y-37438095D01*
X209342857Y-37580952D01*
X208771428Y-38152380D01*
X209390476Y-38152380D01*
X210247619Y-37485714D02*
X210247619Y-38152380D01*
X210009523Y-37104761D02*
X209771428Y-37819047D01*
X210390476Y-37819047D01*
%TO.C,J32*%
X162990476Y-37522380D02*
X162990476Y-38236666D01*
X162942857Y-38379523D01*
X162847619Y-38474761D01*
X162704761Y-38522380D01*
X162609523Y-38522380D01*
X163371428Y-37522380D02*
X163990476Y-37522380D01*
X163657142Y-37903333D01*
X163800000Y-37903333D01*
X163895238Y-37950952D01*
X163942857Y-37998571D01*
X163990476Y-38093809D01*
X163990476Y-38331904D01*
X163942857Y-38427142D01*
X163895238Y-38474761D01*
X163800000Y-38522380D01*
X163514285Y-38522380D01*
X163419047Y-38474761D01*
X163371428Y-38427142D01*
X164371428Y-37617619D02*
X164419047Y-37570000D01*
X164514285Y-37522380D01*
X164752380Y-37522380D01*
X164847619Y-37570000D01*
X164895238Y-37617619D01*
X164942857Y-37712857D01*
X164942857Y-37808095D01*
X164895238Y-37950952D01*
X164323809Y-38522380D01*
X164942857Y-38522380D01*
%TO.C,J22*%
X190390476Y-80352380D02*
X190390476Y-81066666D01*
X190342857Y-81209523D01*
X190247619Y-81304761D01*
X190104761Y-81352380D01*
X190009523Y-81352380D01*
X190819047Y-80447619D02*
X190866666Y-80400000D01*
X190961904Y-80352380D01*
X191200000Y-80352380D01*
X191295238Y-80400000D01*
X191342857Y-80447619D01*
X191390476Y-80542857D01*
X191390476Y-80638095D01*
X191342857Y-80780952D01*
X190771428Y-81352380D01*
X191390476Y-81352380D01*
X191771428Y-80447619D02*
X191819047Y-80400000D01*
X191914285Y-80352380D01*
X192152380Y-80352380D01*
X192247619Y-80400000D01*
X192295238Y-80447619D01*
X192342857Y-80542857D01*
X192342857Y-80638095D01*
X192295238Y-80780952D01*
X191723809Y-81352380D01*
X192342857Y-81352380D01*
%TO.C,J9*%
X213166666Y-37152380D02*
X213166666Y-37866666D01*
X213119047Y-38009523D01*
X213023809Y-38104761D01*
X212880952Y-38152380D01*
X212785714Y-38152380D01*
X213690476Y-38152380D02*
X213880952Y-38152380D01*
X213976190Y-38104761D01*
X214023809Y-38057142D01*
X214119047Y-37914285D01*
X214166666Y-37723809D01*
X214166666Y-37342857D01*
X214119047Y-37247619D01*
X214071428Y-37200000D01*
X213976190Y-37152380D01*
X213785714Y-37152380D01*
X213690476Y-37200000D01*
X213642857Y-37247619D01*
X213595238Y-37342857D01*
X213595238Y-37580952D01*
X213642857Y-37676190D01*
X213690476Y-37723809D01*
X213785714Y-37771428D01*
X213976190Y-37771428D01*
X214071428Y-37723809D01*
X214119047Y-37676190D01*
X214166666Y-37580952D01*
%TO.C,J26*%
X200090476Y-37052380D02*
X200090476Y-37766666D01*
X200042857Y-37909523D01*
X199947619Y-38004761D01*
X199804761Y-38052380D01*
X199709523Y-38052380D01*
X200519047Y-37147619D02*
X200566666Y-37100000D01*
X200661904Y-37052380D01*
X200900000Y-37052380D01*
X200995238Y-37100000D01*
X201042857Y-37147619D01*
X201090476Y-37242857D01*
X201090476Y-37338095D01*
X201042857Y-37480952D01*
X200471428Y-38052380D01*
X201090476Y-38052380D01*
X201947619Y-37052380D02*
X201757142Y-37052380D01*
X201661904Y-37100000D01*
X201614285Y-37147619D01*
X201519047Y-37290476D01*
X201471428Y-37480952D01*
X201471428Y-37861904D01*
X201519047Y-37957142D01*
X201566666Y-38004761D01*
X201661904Y-38052380D01*
X201852380Y-38052380D01*
X201947619Y-38004761D01*
X201995238Y-37957142D01*
X202042857Y-37861904D01*
X202042857Y-37623809D01*
X201995238Y-37528571D01*
X201947619Y-37480952D01*
X201852380Y-37433333D01*
X201661904Y-37433333D01*
X201566666Y-37480952D01*
X201519047Y-37528571D01*
X201471428Y-37623809D01*
%TO.C,J30*%
X159390476Y-37522380D02*
X159390476Y-38236666D01*
X159342857Y-38379523D01*
X159247619Y-38474761D01*
X159104761Y-38522380D01*
X159009523Y-38522380D01*
X159771428Y-37522380D02*
X160390476Y-37522380D01*
X160057142Y-37903333D01*
X160200000Y-37903333D01*
X160295238Y-37950952D01*
X160342857Y-37998571D01*
X160390476Y-38093809D01*
X160390476Y-38331904D01*
X160342857Y-38427142D01*
X160295238Y-38474761D01*
X160200000Y-38522380D01*
X159914285Y-38522380D01*
X159819047Y-38474761D01*
X159771428Y-38427142D01*
X161009523Y-37522380D02*
X161104761Y-37522380D01*
X161200000Y-37570000D01*
X161247619Y-37617619D01*
X161295238Y-37712857D01*
X161342857Y-37903333D01*
X161342857Y-38141428D01*
X161295238Y-38331904D01*
X161247619Y-38427142D01*
X161200000Y-38474761D01*
X161104761Y-38522380D01*
X161009523Y-38522380D01*
X160914285Y-38474761D01*
X160866666Y-38427142D01*
X160819047Y-38331904D01*
X160771428Y-38141428D01*
X160771428Y-37903333D01*
X160819047Y-37712857D01*
X160866666Y-37617619D01*
X160914285Y-37570000D01*
X161009523Y-37522380D01*
%TO.C,J4*%
X204266666Y-75182380D02*
X204266666Y-75896666D01*
X204219047Y-76039523D01*
X204123809Y-76134761D01*
X203980952Y-76182380D01*
X203885714Y-76182380D01*
X205171428Y-75515714D02*
X205171428Y-76182380D01*
X204933333Y-75134761D02*
X204695238Y-75849047D01*
X205314285Y-75849047D01*
%TO.C,C6*%
X246237142Y-49206666D02*
X246284761Y-49254285D01*
X246332380Y-49397142D01*
X246332380Y-49492380D01*
X246284761Y-49635238D01*
X246189523Y-49730476D01*
X246094285Y-49778095D01*
X245903809Y-49825714D01*
X245760952Y-49825714D01*
X245570476Y-49778095D01*
X245475238Y-49730476D01*
X245380000Y-49635238D01*
X245332380Y-49492380D01*
X245332380Y-49397142D01*
X245380000Y-49254285D01*
X245427619Y-49206666D01*
X245332380Y-48349523D02*
X245332380Y-48540000D01*
X245380000Y-48635238D01*
X245427619Y-48682857D01*
X245570476Y-48778095D01*
X245760952Y-48825714D01*
X246141904Y-48825714D01*
X246237142Y-48778095D01*
X246284761Y-48730476D01*
X246332380Y-48635238D01*
X246332380Y-48444761D01*
X246284761Y-48349523D01*
X246237142Y-48301904D01*
X246141904Y-48254285D01*
X245903809Y-48254285D01*
X245808571Y-48301904D01*
X245760952Y-48349523D01*
X245713333Y-48444761D01*
X245713333Y-48635238D01*
X245760952Y-48730476D01*
X245808571Y-48778095D01*
X245903809Y-48825714D01*
%TO.C,J16*%
X240790476Y-53852380D02*
X240790476Y-54566666D01*
X240742857Y-54709523D01*
X240647619Y-54804761D01*
X240504761Y-54852380D01*
X240409523Y-54852380D01*
X241790476Y-54852380D02*
X241219047Y-54852380D01*
X241504761Y-54852380D02*
X241504761Y-53852380D01*
X241409523Y-53995238D01*
X241314285Y-54090476D01*
X241219047Y-54138095D01*
X242647619Y-53852380D02*
X242457142Y-53852380D01*
X242361904Y-53900000D01*
X242314285Y-53947619D01*
X242219047Y-54090476D01*
X242171428Y-54280952D01*
X242171428Y-54661904D01*
X242219047Y-54757142D01*
X242266666Y-54804761D01*
X242361904Y-54852380D01*
X242552380Y-54852380D01*
X242647619Y-54804761D01*
X242695238Y-54757142D01*
X242742857Y-54661904D01*
X242742857Y-54423809D01*
X242695238Y-54328571D01*
X242647619Y-54280952D01*
X242552380Y-54233333D01*
X242361904Y-54233333D01*
X242266666Y-54280952D01*
X242219047Y-54328571D01*
X242171428Y-54423809D01*
%TO.C,SW1*%
X158604761Y-52633333D02*
X158652380Y-52490476D01*
X158652380Y-52252380D01*
X158604761Y-52157142D01*
X158557142Y-52109523D01*
X158461904Y-52061904D01*
X158366666Y-52061904D01*
X158271428Y-52109523D01*
X158223809Y-52157142D01*
X158176190Y-52252380D01*
X158128571Y-52442857D01*
X158080952Y-52538095D01*
X158033333Y-52585714D01*
X157938095Y-52633333D01*
X157842857Y-52633333D01*
X157747619Y-52585714D01*
X157700000Y-52538095D01*
X157652380Y-52442857D01*
X157652380Y-52204761D01*
X157700000Y-52061904D01*
X157652380Y-51728571D02*
X158652380Y-51490476D01*
X157938095Y-51300000D01*
X158652380Y-51109523D01*
X157652380Y-50871428D01*
X158652380Y-49966666D02*
X158652380Y-50538095D01*
X158652380Y-50252380D02*
X157652380Y-50252380D01*
X157795238Y-50347619D01*
X157890476Y-50442857D01*
X157938095Y-50538095D01*
%TO.C,J42*%
X180130476Y-43882380D02*
X180130476Y-44596666D01*
X180082857Y-44739523D01*
X179987619Y-44834761D01*
X179844761Y-44882380D01*
X179749523Y-44882380D01*
X181035238Y-44215714D02*
X181035238Y-44882380D01*
X180797142Y-43834761D02*
X180559047Y-44549047D01*
X181178095Y-44549047D01*
X181511428Y-43977619D02*
X181559047Y-43930000D01*
X181654285Y-43882380D01*
X181892380Y-43882380D01*
X181987619Y-43930000D01*
X182035238Y-43977619D01*
X182082857Y-44072857D01*
X182082857Y-44168095D01*
X182035238Y-44310952D01*
X181463809Y-44882380D01*
X182082857Y-44882380D01*
%TO.C,J41*%
X234010476Y-75282380D02*
X234010476Y-75996666D01*
X233962857Y-76139523D01*
X233867619Y-76234761D01*
X233724761Y-76282380D01*
X233629523Y-76282380D01*
X234915238Y-75615714D02*
X234915238Y-76282380D01*
X234677142Y-75234761D02*
X234439047Y-75949047D01*
X235058095Y-75949047D01*
X235962857Y-76282380D02*
X235391428Y-76282380D01*
X235677142Y-76282380D02*
X235677142Y-75282380D01*
X235581904Y-75425238D01*
X235486666Y-75520476D01*
X235391428Y-75568095D01*
%TO.C,H3*%
X237038095Y-84252380D02*
X237038095Y-83252380D01*
X237038095Y-83728571D02*
X237609523Y-83728571D01*
X237609523Y-84252380D02*
X237609523Y-83252380D01*
X237990476Y-83252380D02*
X238609523Y-83252380D01*
X238276190Y-83633333D01*
X238419047Y-83633333D01*
X238514285Y-83680952D01*
X238561904Y-83728571D01*
X238609523Y-83823809D01*
X238609523Y-84061904D01*
X238561904Y-84157142D01*
X238514285Y-84204761D01*
X238419047Y-84252380D01*
X238133333Y-84252380D01*
X238038095Y-84204761D01*
X237990476Y-84157142D01*
%TO.C,H2*%
X152638095Y-74752380D02*
X152638095Y-73752380D01*
X152638095Y-74228571D02*
X153209523Y-74228571D01*
X153209523Y-74752380D02*
X153209523Y-73752380D01*
X153638095Y-73847619D02*
X153685714Y-73800000D01*
X153780952Y-73752380D01*
X154019047Y-73752380D01*
X154114285Y-73800000D01*
X154161904Y-73847619D01*
X154209523Y-73942857D01*
X154209523Y-74038095D01*
X154161904Y-74180952D01*
X153590476Y-74752380D01*
X154209523Y-74752380D01*
%TO.C,Y1*%
X240523809Y-51976190D02*
X240523809Y-52452380D01*
X240190476Y-51452380D02*
X240523809Y-51976190D01*
X240857142Y-51452380D01*
X241714285Y-52452380D02*
X241142857Y-52452380D01*
X241428571Y-52452380D02*
X241428571Y-51452380D01*
X241333333Y-51595238D01*
X241238095Y-51690476D01*
X241142857Y-51738095D01*
%TO.C,C5*%
X237633333Y-45557142D02*
X237585714Y-45604761D01*
X237442857Y-45652380D01*
X237347619Y-45652380D01*
X237204761Y-45604761D01*
X237109523Y-45509523D01*
X237061904Y-45414285D01*
X237014285Y-45223809D01*
X237014285Y-45080952D01*
X237061904Y-44890476D01*
X237109523Y-44795238D01*
X237204761Y-44700000D01*
X237347619Y-44652380D01*
X237442857Y-44652380D01*
X237585714Y-44700000D01*
X237633333Y-44747619D01*
X238538095Y-44652380D02*
X238061904Y-44652380D01*
X238014285Y-45128571D01*
X238061904Y-45080952D01*
X238157142Y-45033333D01*
X238395238Y-45033333D01*
X238490476Y-45080952D01*
X238538095Y-45128571D01*
X238585714Y-45223809D01*
X238585714Y-45461904D01*
X238538095Y-45557142D01*
X238490476Y-45604761D01*
X238395238Y-45652380D01*
X238157142Y-45652380D01*
X238061904Y-45604761D01*
X238014285Y-45557142D01*
%TO.C,C9*%
X153758333Y-65687142D02*
X153710714Y-65734761D01*
X153567857Y-65782380D01*
X153472619Y-65782380D01*
X153329761Y-65734761D01*
X153234523Y-65639523D01*
X153186904Y-65544285D01*
X153139285Y-65353809D01*
X153139285Y-65210952D01*
X153186904Y-65020476D01*
X153234523Y-64925238D01*
X153329761Y-64830000D01*
X153472619Y-64782380D01*
X153567857Y-64782380D01*
X153710714Y-64830000D01*
X153758333Y-64877619D01*
X154234523Y-65782380D02*
X154425000Y-65782380D01*
X154520238Y-65734761D01*
X154567857Y-65687142D01*
X154663095Y-65544285D01*
X154710714Y-65353809D01*
X154710714Y-64972857D01*
X154663095Y-64877619D01*
X154615476Y-64830000D01*
X154520238Y-64782380D01*
X154329761Y-64782380D01*
X154234523Y-64830000D01*
X154186904Y-64877619D01*
X154139285Y-64972857D01*
X154139285Y-65210952D01*
X154186904Y-65306190D01*
X154234523Y-65353809D01*
X154329761Y-65401428D01*
X154520238Y-65401428D01*
X154615476Y-65353809D01*
X154663095Y-65306190D01*
X154710714Y-65210952D01*
%TO.C,J17*%
X186990476Y-80352380D02*
X186990476Y-81066666D01*
X186942857Y-81209523D01*
X186847619Y-81304761D01*
X186704761Y-81352380D01*
X186609523Y-81352380D01*
X187990476Y-81352380D02*
X187419047Y-81352380D01*
X187704761Y-81352380D02*
X187704761Y-80352380D01*
X187609523Y-80495238D01*
X187514285Y-80590476D01*
X187419047Y-80638095D01*
X188323809Y-80352380D02*
X188990476Y-80352380D01*
X188561904Y-81352380D01*
%TO.C,J6*%
X157302380Y-35633333D02*
X158016666Y-35633333D01*
X158159523Y-35680952D01*
X158254761Y-35776190D01*
X158302380Y-35919047D01*
X158302380Y-36014285D01*
X157302380Y-34728571D02*
X157302380Y-34919047D01*
X157350000Y-35014285D01*
X157397619Y-35061904D01*
X157540476Y-35157142D01*
X157730952Y-35204761D01*
X158111904Y-35204761D01*
X158207142Y-35157142D01*
X158254761Y-35109523D01*
X158302380Y-35014285D01*
X158302380Y-34823809D01*
X158254761Y-34728571D01*
X158207142Y-34680952D01*
X158111904Y-34633333D01*
X157873809Y-34633333D01*
X157778571Y-34680952D01*
X157730952Y-34728571D01*
X157683333Y-34823809D01*
X157683333Y-35014285D01*
X157730952Y-35109523D01*
X157778571Y-35157142D01*
X157873809Y-35204761D01*
%TO.C,J14*%
X162890476Y-80222380D02*
X162890476Y-80936666D01*
X162842857Y-81079523D01*
X162747619Y-81174761D01*
X162604761Y-81222380D01*
X162509523Y-81222380D01*
X163890476Y-81222380D02*
X163319047Y-81222380D01*
X163604761Y-81222380D02*
X163604761Y-80222380D01*
X163509523Y-80365238D01*
X163414285Y-80460476D01*
X163319047Y-80508095D01*
X164747619Y-80555714D02*
X164747619Y-81222380D01*
X164509523Y-80174761D02*
X164271428Y-80889047D01*
X164890476Y-80889047D01*
%TO.C,U5*%
X157538095Y-42552380D02*
X157538095Y-43361904D01*
X157585714Y-43457142D01*
X157633333Y-43504761D01*
X157728571Y-43552380D01*
X157919047Y-43552380D01*
X158014285Y-43504761D01*
X158061904Y-43457142D01*
X158109523Y-43361904D01*
X158109523Y-42552380D01*
X159061904Y-42552380D02*
X158585714Y-42552380D01*
X158538095Y-43028571D01*
X158585714Y-42980952D01*
X158680952Y-42933333D01*
X158919047Y-42933333D01*
X159014285Y-42980952D01*
X159061904Y-43028571D01*
X159109523Y-43123809D01*
X159109523Y-43361904D01*
X159061904Y-43457142D01*
X159014285Y-43504761D01*
X158919047Y-43552380D01*
X158680952Y-43552380D01*
X158585714Y-43504761D01*
X158538095Y-43457142D01*
%TO.C,R11*%
X151744642Y-63002380D02*
X151411309Y-62526190D01*
X151173214Y-63002380D02*
X151173214Y-62002380D01*
X151554166Y-62002380D01*
X151649404Y-62050000D01*
X151697023Y-62097619D01*
X151744642Y-62192857D01*
X151744642Y-62335714D01*
X151697023Y-62430952D01*
X151649404Y-62478571D01*
X151554166Y-62526190D01*
X151173214Y-62526190D01*
X152697023Y-63002380D02*
X152125595Y-63002380D01*
X152411309Y-63002380D02*
X152411309Y-62002380D01*
X152316071Y-62145238D01*
X152220833Y-62240476D01*
X152125595Y-62288095D01*
X153649404Y-63002380D02*
X153077976Y-63002380D01*
X153363690Y-63002380D02*
X153363690Y-62002380D01*
X153268452Y-62145238D01*
X153173214Y-62240476D01*
X153077976Y-62288095D01*
%TO.C,H4*%
X245338095Y-44352380D02*
X245338095Y-43352380D01*
X245338095Y-43828571D02*
X245909523Y-43828571D01*
X245909523Y-44352380D02*
X245909523Y-43352380D01*
X246814285Y-43685714D02*
X246814285Y-44352380D01*
X246576190Y-43304761D02*
X246338095Y-44019047D01*
X246957142Y-44019047D01*
%TO.C,C8*%
X178527142Y-64391666D02*
X178574761Y-64439285D01*
X178622380Y-64582142D01*
X178622380Y-64677380D01*
X178574761Y-64820238D01*
X178479523Y-64915476D01*
X178384285Y-64963095D01*
X178193809Y-65010714D01*
X178050952Y-65010714D01*
X177860476Y-64963095D01*
X177765238Y-64915476D01*
X177670000Y-64820238D01*
X177622380Y-64677380D01*
X177622380Y-64582142D01*
X177670000Y-64439285D01*
X177717619Y-64391666D01*
X178050952Y-63820238D02*
X178003333Y-63915476D01*
X177955714Y-63963095D01*
X177860476Y-64010714D01*
X177812857Y-64010714D01*
X177717619Y-63963095D01*
X177670000Y-63915476D01*
X177622380Y-63820238D01*
X177622380Y-63629761D01*
X177670000Y-63534523D01*
X177717619Y-63486904D01*
X177812857Y-63439285D01*
X177860476Y-63439285D01*
X177955714Y-63486904D01*
X178003333Y-63534523D01*
X178050952Y-63629761D01*
X178050952Y-63820238D01*
X178098571Y-63915476D01*
X178146190Y-63963095D01*
X178241428Y-64010714D01*
X178431904Y-64010714D01*
X178527142Y-63963095D01*
X178574761Y-63915476D01*
X178622380Y-63820238D01*
X178622380Y-63629761D01*
X178574761Y-63534523D01*
X178527142Y-63486904D01*
X178431904Y-63439285D01*
X178241428Y-63439285D01*
X178146190Y-63486904D01*
X178098571Y-63534523D01*
X178050952Y-63629761D01*
%TO.C,J35*%
X166590476Y-37522380D02*
X166590476Y-38236666D01*
X166542857Y-38379523D01*
X166447619Y-38474761D01*
X166304761Y-38522380D01*
X166209523Y-38522380D01*
X166971428Y-37522380D02*
X167590476Y-37522380D01*
X167257142Y-37903333D01*
X167400000Y-37903333D01*
X167495238Y-37950952D01*
X167542857Y-37998571D01*
X167590476Y-38093809D01*
X167590476Y-38331904D01*
X167542857Y-38427142D01*
X167495238Y-38474761D01*
X167400000Y-38522380D01*
X167114285Y-38522380D01*
X167019047Y-38474761D01*
X166971428Y-38427142D01*
X168495238Y-37522380D02*
X168019047Y-37522380D01*
X167971428Y-37998571D01*
X168019047Y-37950952D01*
X168114285Y-37903333D01*
X168352380Y-37903333D01*
X168447619Y-37950952D01*
X168495238Y-37998571D01*
X168542857Y-38093809D01*
X168542857Y-38331904D01*
X168495238Y-38427142D01*
X168447619Y-38474761D01*
X168352380Y-38522380D01*
X168114285Y-38522380D01*
X168019047Y-38474761D01*
X167971428Y-38427142D01*
%TO.C,R7*%
X240833333Y-45252380D02*
X240500000Y-44776190D01*
X240261904Y-45252380D02*
X240261904Y-44252380D01*
X240642857Y-44252380D01*
X240738095Y-44300000D01*
X240785714Y-44347619D01*
X240833333Y-44442857D01*
X240833333Y-44585714D01*
X240785714Y-44680952D01*
X240738095Y-44728571D01*
X240642857Y-44776190D01*
X240261904Y-44776190D01*
X241166666Y-44252380D02*
X241833333Y-44252380D01*
X241404761Y-45252380D01*
%TO.C,J37*%
X166490476Y-80222380D02*
X166490476Y-80936666D01*
X166442857Y-81079523D01*
X166347619Y-81174761D01*
X166204761Y-81222380D01*
X166109523Y-81222380D01*
X166871428Y-80222380D02*
X167490476Y-80222380D01*
X167157142Y-80603333D01*
X167300000Y-80603333D01*
X167395238Y-80650952D01*
X167442857Y-80698571D01*
X167490476Y-80793809D01*
X167490476Y-81031904D01*
X167442857Y-81127142D01*
X167395238Y-81174761D01*
X167300000Y-81222380D01*
X167014285Y-81222380D01*
X166919047Y-81174761D01*
X166871428Y-81127142D01*
X167823809Y-80222380D02*
X168490476Y-80222380D01*
X168061904Y-81222380D01*
%TO.C,C7*%
X183733333Y-59157142D02*
X183685714Y-59204761D01*
X183542857Y-59252380D01*
X183447619Y-59252380D01*
X183304761Y-59204761D01*
X183209523Y-59109523D01*
X183161904Y-59014285D01*
X183114285Y-58823809D01*
X183114285Y-58680952D01*
X183161904Y-58490476D01*
X183209523Y-58395238D01*
X183304761Y-58300000D01*
X183447619Y-58252380D01*
X183542857Y-58252380D01*
X183685714Y-58300000D01*
X183733333Y-58347619D01*
X184066666Y-58252380D02*
X184733333Y-58252380D01*
X184304761Y-59252380D01*
%TO.C,J23*%
X180190476Y-37182380D02*
X180190476Y-37896666D01*
X180142857Y-38039523D01*
X180047619Y-38134761D01*
X179904761Y-38182380D01*
X179809523Y-38182380D01*
X180619047Y-37277619D02*
X180666666Y-37230000D01*
X180761904Y-37182380D01*
X181000000Y-37182380D01*
X181095238Y-37230000D01*
X181142857Y-37277619D01*
X181190476Y-37372857D01*
X181190476Y-37468095D01*
X181142857Y-37610952D01*
X180571428Y-38182380D01*
X181190476Y-38182380D01*
X181523809Y-37182380D02*
X182142857Y-37182380D01*
X181809523Y-37563333D01*
X181952380Y-37563333D01*
X182047619Y-37610952D01*
X182095238Y-37658571D01*
X182142857Y-37753809D01*
X182142857Y-37991904D01*
X182095238Y-38087142D01*
X182047619Y-38134761D01*
X181952380Y-38182380D01*
X181666666Y-38182380D01*
X181571428Y-38134761D01*
X181523809Y-38087142D01*
%TO.C,J7*%
X170966666Y-70257380D02*
X170966666Y-70971666D01*
X170919047Y-71114523D01*
X170823809Y-71209761D01*
X170680952Y-71257380D01*
X170585714Y-71257380D01*
X171347619Y-70257380D02*
X172014285Y-70257380D01*
X171585714Y-71257380D01*
%TO.C,J10*%
X219190476Y-80122380D02*
X219190476Y-80836666D01*
X219142857Y-80979523D01*
X219047619Y-81074761D01*
X218904761Y-81122380D01*
X218809523Y-81122380D01*
X220190476Y-81122380D02*
X219619047Y-81122380D01*
X219904761Y-81122380D02*
X219904761Y-80122380D01*
X219809523Y-80265238D01*
X219714285Y-80360476D01*
X219619047Y-80408095D01*
X220809523Y-80122380D02*
X220904761Y-80122380D01*
X221000000Y-80170000D01*
X221047619Y-80217619D01*
X221095238Y-80312857D01*
X221142857Y-80503333D01*
X221142857Y-80741428D01*
X221095238Y-80931904D01*
X221047619Y-81027142D01*
X221000000Y-81074761D01*
X220904761Y-81122380D01*
X220809523Y-81122380D01*
X220714285Y-81074761D01*
X220666666Y-81027142D01*
X220619047Y-80931904D01*
X220571428Y-80741428D01*
X220571428Y-80503333D01*
X220619047Y-80312857D01*
X220666666Y-80217619D01*
X220714285Y-80170000D01*
X220809523Y-80122380D01*
%TO.C,J29*%
X196190476Y-36852380D02*
X196190476Y-37566666D01*
X196142857Y-37709523D01*
X196047619Y-37804761D01*
X195904761Y-37852380D01*
X195809523Y-37852380D01*
X196619047Y-36947619D02*
X196666666Y-36900000D01*
X196761904Y-36852380D01*
X197000000Y-36852380D01*
X197095238Y-36900000D01*
X197142857Y-36947619D01*
X197190476Y-37042857D01*
X197190476Y-37138095D01*
X197142857Y-37280952D01*
X196571428Y-37852380D01*
X197190476Y-37852380D01*
X197666666Y-37852380D02*
X197857142Y-37852380D01*
X197952380Y-37804761D01*
X198000000Y-37757142D01*
X198095238Y-37614285D01*
X198142857Y-37423809D01*
X198142857Y-37042857D01*
X198095238Y-36947619D01*
X198047619Y-36900000D01*
X197952380Y-36852380D01*
X197761904Y-36852380D01*
X197666666Y-36900000D01*
X197619047Y-36947619D01*
X197571428Y-37042857D01*
X197571428Y-37280952D01*
X197619047Y-37376190D01*
X197666666Y-37423809D01*
X197761904Y-37471428D01*
X197952380Y-37471428D01*
X198047619Y-37423809D01*
X198095238Y-37376190D01*
X198142857Y-37280952D01*
%TO.C,J19*%
X223790476Y-36952380D02*
X223790476Y-37666666D01*
X223742857Y-37809523D01*
X223647619Y-37904761D01*
X223504761Y-37952380D01*
X223409523Y-37952380D01*
X224790476Y-37952380D02*
X224219047Y-37952380D01*
X224504761Y-37952380D02*
X224504761Y-36952380D01*
X224409523Y-37095238D01*
X224314285Y-37190476D01*
X224219047Y-37238095D01*
X225266666Y-37952380D02*
X225457142Y-37952380D01*
X225552380Y-37904761D01*
X225600000Y-37857142D01*
X225695238Y-37714285D01*
X225742857Y-37523809D01*
X225742857Y-37142857D01*
X225695238Y-37047619D01*
X225647619Y-37000000D01*
X225552380Y-36952380D01*
X225361904Y-36952380D01*
X225266666Y-37000000D01*
X225219047Y-37047619D01*
X225171428Y-37142857D01*
X225171428Y-37380952D01*
X225219047Y-37476190D01*
X225266666Y-37523809D01*
X225361904Y-37571428D01*
X225552380Y-37571428D01*
X225647619Y-37523809D01*
X225695238Y-37476190D01*
X225742857Y-37380952D01*
%TO.C,J13*%
X230090476Y-80122380D02*
X230090476Y-80836666D01*
X230042857Y-80979523D01*
X229947619Y-81074761D01*
X229804761Y-81122380D01*
X229709523Y-81122380D01*
X231090476Y-81122380D02*
X230519047Y-81122380D01*
X230804761Y-81122380D02*
X230804761Y-80122380D01*
X230709523Y-80265238D01*
X230614285Y-80360476D01*
X230519047Y-80408095D01*
X231423809Y-80122380D02*
X232042857Y-80122380D01*
X231709523Y-80503333D01*
X231852380Y-80503333D01*
X231947619Y-80550952D01*
X231995238Y-80598571D01*
X232042857Y-80693809D01*
X232042857Y-80931904D01*
X231995238Y-81027142D01*
X231947619Y-81074761D01*
X231852380Y-81122380D01*
X231566666Y-81122380D01*
X231471428Y-81074761D01*
X231423809Y-81027142D01*
%TO.C,J31*%
X245390476Y-63552380D02*
X245390476Y-64266666D01*
X245342857Y-64409523D01*
X245247619Y-64504761D01*
X245104761Y-64552380D01*
X245009523Y-64552380D01*
X245771428Y-63552380D02*
X246390476Y-63552380D01*
X246057142Y-63933333D01*
X246200000Y-63933333D01*
X246295238Y-63980952D01*
X246342857Y-64028571D01*
X246390476Y-64123809D01*
X246390476Y-64361904D01*
X246342857Y-64457142D01*
X246295238Y-64504761D01*
X246200000Y-64552380D01*
X245914285Y-64552380D01*
X245819047Y-64504761D01*
X245771428Y-64457142D01*
X247342857Y-64552380D02*
X246771428Y-64552380D01*
X247057142Y-64552380D02*
X247057142Y-63552380D01*
X246961904Y-63695238D01*
X246866666Y-63790476D01*
X246771428Y-63838095D01*
%TO.C,J8*%
X216866666Y-36952380D02*
X216866666Y-37666666D01*
X216819047Y-37809523D01*
X216723809Y-37904761D01*
X216580952Y-37952380D01*
X216485714Y-37952380D01*
X217485714Y-37380952D02*
X217390476Y-37333333D01*
X217342857Y-37285714D01*
X217295238Y-37190476D01*
X217295238Y-37142857D01*
X217342857Y-37047619D01*
X217390476Y-37000000D01*
X217485714Y-36952380D01*
X217676190Y-36952380D01*
X217771428Y-37000000D01*
X217819047Y-37047619D01*
X217866666Y-37142857D01*
X217866666Y-37190476D01*
X217819047Y-37285714D01*
X217771428Y-37333333D01*
X217676190Y-37380952D01*
X217485714Y-37380952D01*
X217390476Y-37428571D01*
X217342857Y-37476190D01*
X217295238Y-37571428D01*
X217295238Y-37761904D01*
X217342857Y-37857142D01*
X217390476Y-37904761D01*
X217485714Y-37952380D01*
X217676190Y-37952380D01*
X217771428Y-37904761D01*
X217819047Y-37857142D01*
X217866666Y-37761904D01*
X217866666Y-37571428D01*
X217819047Y-37476190D01*
X217771428Y-37428571D01*
X217676190Y-37380952D01*
%TO.C,C10*%
X149727142Y-68367857D02*
X149774761Y-68415476D01*
X149822380Y-68558333D01*
X149822380Y-68653571D01*
X149774761Y-68796428D01*
X149679523Y-68891666D01*
X149584285Y-68939285D01*
X149393809Y-68986904D01*
X149250952Y-68986904D01*
X149060476Y-68939285D01*
X148965238Y-68891666D01*
X148870000Y-68796428D01*
X148822380Y-68653571D01*
X148822380Y-68558333D01*
X148870000Y-68415476D01*
X148917619Y-68367857D01*
X149822380Y-67415476D02*
X149822380Y-67986904D01*
X149822380Y-67701190D02*
X148822380Y-67701190D01*
X148965238Y-67796428D01*
X149060476Y-67891666D01*
X149108095Y-67986904D01*
X148822380Y-66796428D02*
X148822380Y-66701190D01*
X148870000Y-66605952D01*
X148917619Y-66558333D01*
X149012857Y-66510714D01*
X149203333Y-66463095D01*
X149441428Y-66463095D01*
X149631904Y-66510714D01*
X149727142Y-66558333D01*
X149774761Y-66605952D01*
X149822380Y-66701190D01*
X149822380Y-66796428D01*
X149774761Y-66891666D01*
X149727142Y-66939285D01*
X149631904Y-66986904D01*
X149441428Y-67034523D01*
X149203333Y-67034523D01*
X149012857Y-66986904D01*
X148917619Y-66939285D01*
X148870000Y-66891666D01*
X148822380Y-66796428D01*
%TO.C,U4*%
X192248095Y-41022380D02*
X192248095Y-41831904D01*
X192295714Y-41927142D01*
X192343333Y-41974761D01*
X192438571Y-42022380D01*
X192629047Y-42022380D01*
X192724285Y-41974761D01*
X192771904Y-41927142D01*
X192819523Y-41831904D01*
X192819523Y-41022380D01*
X193724285Y-41355714D02*
X193724285Y-42022380D01*
X193486190Y-40974761D02*
X193248095Y-41689047D01*
X193867142Y-41689047D01*
%TO.C,J28*%
X192790476Y-37052380D02*
X192790476Y-37766666D01*
X192742857Y-37909523D01*
X192647619Y-38004761D01*
X192504761Y-38052380D01*
X192409523Y-38052380D01*
X193219047Y-37147619D02*
X193266666Y-37100000D01*
X193361904Y-37052380D01*
X193600000Y-37052380D01*
X193695238Y-37100000D01*
X193742857Y-37147619D01*
X193790476Y-37242857D01*
X193790476Y-37338095D01*
X193742857Y-37480952D01*
X193171428Y-38052380D01*
X193790476Y-38052380D01*
X194361904Y-37480952D02*
X194266666Y-37433333D01*
X194219047Y-37385714D01*
X194171428Y-37290476D01*
X194171428Y-37242857D01*
X194219047Y-37147619D01*
X194266666Y-37100000D01*
X194361904Y-37052380D01*
X194552380Y-37052380D01*
X194647619Y-37100000D01*
X194695238Y-37147619D01*
X194742857Y-37242857D01*
X194742857Y-37290476D01*
X194695238Y-37385714D01*
X194647619Y-37433333D01*
X194552380Y-37480952D01*
X194361904Y-37480952D01*
X194266666Y-37528571D01*
X194219047Y-37576190D01*
X194171428Y-37671428D01*
X194171428Y-37861904D01*
X194219047Y-37957142D01*
X194266666Y-38004761D01*
X194361904Y-38052380D01*
X194552380Y-38052380D01*
X194647619Y-38004761D01*
X194695238Y-37957142D01*
X194742857Y-37861904D01*
X194742857Y-37671428D01*
X194695238Y-37576190D01*
X194647619Y-37528571D01*
X194552380Y-37480952D01*
%TO.C,J36*%
X149090476Y-70222380D02*
X149090476Y-70936666D01*
X149042857Y-71079523D01*
X148947619Y-71174761D01*
X148804761Y-71222380D01*
X148709523Y-71222380D01*
X149471428Y-70222380D02*
X150090476Y-70222380D01*
X149757142Y-70603333D01*
X149900000Y-70603333D01*
X149995238Y-70650952D01*
X150042857Y-70698571D01*
X150090476Y-70793809D01*
X150090476Y-71031904D01*
X150042857Y-71127142D01*
X149995238Y-71174761D01*
X149900000Y-71222380D01*
X149614285Y-71222380D01*
X149519047Y-71174761D01*
X149471428Y-71127142D01*
X150947619Y-70222380D02*
X150757142Y-70222380D01*
X150661904Y-70270000D01*
X150614285Y-70317619D01*
X150519047Y-70460476D01*
X150471428Y-70650952D01*
X150471428Y-71031904D01*
X150519047Y-71127142D01*
X150566666Y-71174761D01*
X150661904Y-71222380D01*
X150852380Y-71222380D01*
X150947619Y-71174761D01*
X150995238Y-71127142D01*
X151042857Y-71031904D01*
X151042857Y-70793809D01*
X150995238Y-70698571D01*
X150947619Y-70650952D01*
X150852380Y-70603333D01*
X150661904Y-70603333D01*
X150566666Y-70650952D01*
X150519047Y-70698571D01*
X150471428Y-70793809D01*
%TO.C,H1*%
X149738095Y-44152380D02*
X149738095Y-43152380D01*
X149738095Y-43628571D02*
X150309523Y-43628571D01*
X150309523Y-44152380D02*
X150309523Y-43152380D01*
X151309523Y-44152380D02*
X150738095Y-44152380D01*
X151023809Y-44152380D02*
X151023809Y-43152380D01*
X150928571Y-43295238D01*
X150833333Y-43390476D01*
X150738095Y-43438095D01*
%TO.C,J39*%
X159290476Y-80222380D02*
X159290476Y-80936666D01*
X159242857Y-81079523D01*
X159147619Y-81174761D01*
X159004761Y-81222380D01*
X158909523Y-81222380D01*
X159671428Y-80222380D02*
X160290476Y-80222380D01*
X159957142Y-80603333D01*
X160100000Y-80603333D01*
X160195238Y-80650952D01*
X160242857Y-80698571D01*
X160290476Y-80793809D01*
X160290476Y-81031904D01*
X160242857Y-81127142D01*
X160195238Y-81174761D01*
X160100000Y-81222380D01*
X159814285Y-81222380D01*
X159719047Y-81174761D01*
X159671428Y-81127142D01*
X160766666Y-81222380D02*
X160957142Y-81222380D01*
X161052380Y-81174761D01*
X161100000Y-81127142D01*
X161195238Y-80984285D01*
X161242857Y-80793809D01*
X161242857Y-80412857D01*
X161195238Y-80317619D01*
X161147619Y-80270000D01*
X161052380Y-80222380D01*
X160861904Y-80222380D01*
X160766666Y-80270000D01*
X160719047Y-80317619D01*
X160671428Y-80412857D01*
X160671428Y-80650952D01*
X160719047Y-80746190D01*
X160766666Y-80793809D01*
X160861904Y-80841428D01*
X161052380Y-80841428D01*
X161147619Y-80793809D01*
X161195238Y-80746190D01*
X161242857Y-80650952D01*
%TO.C,J15*%
X194090476Y-80222380D02*
X194090476Y-80936666D01*
X194042857Y-81079523D01*
X193947619Y-81174761D01*
X193804761Y-81222380D01*
X193709523Y-81222380D01*
X195090476Y-81222380D02*
X194519047Y-81222380D01*
X194804761Y-81222380D02*
X194804761Y-80222380D01*
X194709523Y-80365238D01*
X194614285Y-80460476D01*
X194519047Y-80508095D01*
X195995238Y-80222380D02*
X195519047Y-80222380D01*
X195471428Y-80698571D01*
X195519047Y-80650952D01*
X195614285Y-80603333D01*
X195852380Y-80603333D01*
X195947619Y-80650952D01*
X195995238Y-80698571D01*
X196042857Y-80793809D01*
X196042857Y-81031904D01*
X195995238Y-81127142D01*
X195947619Y-81174761D01*
X195852380Y-81222380D01*
X195614285Y-81222380D01*
X195519047Y-81174761D01*
X195471428Y-81127142D01*
%TO.C,R8*%
X183908333Y-68322380D02*
X183575000Y-67846190D01*
X183336904Y-68322380D02*
X183336904Y-67322380D01*
X183717857Y-67322380D01*
X183813095Y-67370000D01*
X183860714Y-67417619D01*
X183908333Y-67512857D01*
X183908333Y-67655714D01*
X183860714Y-67750952D01*
X183813095Y-67798571D01*
X183717857Y-67846190D01*
X183336904Y-67846190D01*
X184479761Y-67750952D02*
X184384523Y-67703333D01*
X184336904Y-67655714D01*
X184289285Y-67560476D01*
X184289285Y-67512857D01*
X184336904Y-67417619D01*
X184384523Y-67370000D01*
X184479761Y-67322380D01*
X184670238Y-67322380D01*
X184765476Y-67370000D01*
X184813095Y-67417619D01*
X184860714Y-67512857D01*
X184860714Y-67560476D01*
X184813095Y-67655714D01*
X184765476Y-67703333D01*
X184670238Y-67750952D01*
X184479761Y-67750952D01*
X184384523Y-67798571D01*
X184336904Y-67846190D01*
X184289285Y-67941428D01*
X184289285Y-68131904D01*
X184336904Y-68227142D01*
X184384523Y-68274761D01*
X184479761Y-68322380D01*
X184670238Y-68322380D01*
X184765476Y-68274761D01*
X184813095Y-68227142D01*
X184860714Y-68131904D01*
X184860714Y-67941428D01*
X184813095Y-67846190D01*
X184765476Y-67798571D01*
X184670238Y-67750952D01*
%TO.C,J43*%
X176480476Y-43842380D02*
X176480476Y-44556666D01*
X176432857Y-44699523D01*
X176337619Y-44794761D01*
X176194761Y-44842380D01*
X176099523Y-44842380D01*
X177385238Y-44175714D02*
X177385238Y-44842380D01*
X177147142Y-43794761D02*
X176909047Y-44509047D01*
X177528095Y-44509047D01*
X177813809Y-43842380D02*
X178432857Y-43842380D01*
X178099523Y-44223333D01*
X178242380Y-44223333D01*
X178337619Y-44270952D01*
X178385238Y-44318571D01*
X178432857Y-44413809D01*
X178432857Y-44651904D01*
X178385238Y-44747142D01*
X178337619Y-44794761D01*
X178242380Y-44842380D01*
X177956666Y-44842380D01*
X177861428Y-44794761D01*
X177813809Y-44747142D01*
%TO.C,U3*%
X237438095Y-68752380D02*
X237438095Y-69561904D01*
X237485714Y-69657142D01*
X237533333Y-69704761D01*
X237628571Y-69752380D01*
X237819047Y-69752380D01*
X237914285Y-69704761D01*
X237961904Y-69657142D01*
X238009523Y-69561904D01*
X238009523Y-68752380D01*
X238390476Y-68752380D02*
X239009523Y-68752380D01*
X238676190Y-69133333D01*
X238819047Y-69133333D01*
X238914285Y-69180952D01*
X238961904Y-69228571D01*
X239009523Y-69323809D01*
X239009523Y-69561904D01*
X238961904Y-69657142D01*
X238914285Y-69704761D01*
X238819047Y-69752380D01*
X238533333Y-69752380D01*
X238438095Y-69704761D01*
X238390476Y-69657142D01*
%TO.C,J25*%
X204190476Y-37252380D02*
X204190476Y-37966666D01*
X204142857Y-38109523D01*
X204047619Y-38204761D01*
X203904761Y-38252380D01*
X203809523Y-38252380D01*
X204619047Y-37347619D02*
X204666666Y-37300000D01*
X204761904Y-37252380D01*
X205000000Y-37252380D01*
X205095238Y-37300000D01*
X205142857Y-37347619D01*
X205190476Y-37442857D01*
X205190476Y-37538095D01*
X205142857Y-37680952D01*
X204571428Y-38252380D01*
X205190476Y-38252380D01*
X206095238Y-37252380D02*
X205619047Y-37252380D01*
X205571428Y-37728571D01*
X205619047Y-37680952D01*
X205714285Y-37633333D01*
X205952380Y-37633333D01*
X206047619Y-37680952D01*
X206095238Y-37728571D01*
X206142857Y-37823809D01*
X206142857Y-38061904D01*
X206095238Y-38157142D01*
X206047619Y-38204761D01*
X205952380Y-38252380D01*
X205714285Y-38252380D01*
X205619047Y-38204761D01*
X205571428Y-38157142D01*
%TO.C,Y3*%
X153523809Y-70176190D02*
X153523809Y-70652380D01*
X153190476Y-69652380D02*
X153523809Y-70176190D01*
X153857142Y-69652380D01*
X154095238Y-69652380D02*
X154714285Y-69652380D01*
X154380952Y-70033333D01*
X154523809Y-70033333D01*
X154619047Y-70080952D01*
X154666666Y-70128571D01*
X154714285Y-70223809D01*
X154714285Y-70461904D01*
X154666666Y-70557142D01*
X154619047Y-70604761D01*
X154523809Y-70652380D01*
X154238095Y-70652380D01*
X154142857Y-70604761D01*
X154095238Y-70557142D01*
%TO.C,J34*%
X242550476Y-57802380D02*
X242550476Y-58516666D01*
X242502857Y-58659523D01*
X242407619Y-58754761D01*
X242264761Y-58802380D01*
X242169523Y-58802380D01*
X242931428Y-57802380D02*
X243550476Y-57802380D01*
X243217142Y-58183333D01*
X243360000Y-58183333D01*
X243455238Y-58230952D01*
X243502857Y-58278571D01*
X243550476Y-58373809D01*
X243550476Y-58611904D01*
X243502857Y-58707142D01*
X243455238Y-58754761D01*
X243360000Y-58802380D01*
X243074285Y-58802380D01*
X242979047Y-58754761D01*
X242931428Y-58707142D01*
X244407619Y-58135714D02*
X244407619Y-58802380D01*
X244169523Y-57754761D02*
X243931428Y-58469047D01*
X244550476Y-58469047D01*
%TO.C,J3*%
X215752380Y-73443333D02*
X216466666Y-73443333D01*
X216609523Y-73490952D01*
X216704761Y-73586190D01*
X216752380Y-73729047D01*
X216752380Y-73824285D01*
X215752380Y-73062380D02*
X215752380Y-72443333D01*
X216133333Y-72776666D01*
X216133333Y-72633809D01*
X216180952Y-72538571D01*
X216228571Y-72490952D01*
X216323809Y-72443333D01*
X216561904Y-72443333D01*
X216657142Y-72490952D01*
X216704761Y-72538571D01*
X216752380Y-72633809D01*
X216752380Y-72919523D01*
X216704761Y-73014761D01*
X216657142Y-73062380D01*
%TO.C,R9*%
X157352380Y-67666666D02*
X156876190Y-68000000D01*
X157352380Y-68238095D02*
X156352380Y-68238095D01*
X156352380Y-67857142D01*
X156400000Y-67761904D01*
X156447619Y-67714285D01*
X156542857Y-67666666D01*
X156685714Y-67666666D01*
X156780952Y-67714285D01*
X156828571Y-67761904D01*
X156876190Y-67857142D01*
X156876190Y-68238095D01*
X157352380Y-67190476D02*
X157352380Y-67000000D01*
X157304761Y-66904761D01*
X157257142Y-66857142D01*
X157114285Y-66761904D01*
X156923809Y-66714285D01*
X156542857Y-66714285D01*
X156447619Y-66761904D01*
X156400000Y-66809523D01*
X156352380Y-66904761D01*
X156352380Y-67095238D01*
X156400000Y-67190476D01*
X156447619Y-67238095D01*
X156542857Y-67285714D01*
X156780952Y-67285714D01*
X156876190Y-67238095D01*
X156923809Y-67190476D01*
X156971428Y-67095238D01*
X156971428Y-66904761D01*
X156923809Y-66809523D01*
X156876190Y-66761904D01*
X156780952Y-66714285D01*
%TO.C,J11*%
X222890476Y-80122380D02*
X222890476Y-80836666D01*
X222842857Y-80979523D01*
X222747619Y-81074761D01*
X222604761Y-81122380D01*
X222509523Y-81122380D01*
X223890476Y-81122380D02*
X223319047Y-81122380D01*
X223604761Y-81122380D02*
X223604761Y-80122380D01*
X223509523Y-80265238D01*
X223414285Y-80360476D01*
X223319047Y-80408095D01*
X224842857Y-81122380D02*
X224271428Y-81122380D01*
X224557142Y-81122380D02*
X224557142Y-80122380D01*
X224461904Y-80265238D01*
X224366666Y-80360476D01*
X224271428Y-80408095D01*
%TO.C,J5*%
X168272380Y-83433333D02*
X168986666Y-83433333D01*
X169129523Y-83480952D01*
X169224761Y-83576190D01*
X169272380Y-83719047D01*
X169272380Y-83814285D01*
X168272380Y-82480952D02*
X168272380Y-82957142D01*
X168748571Y-83004761D01*
X168700952Y-82957142D01*
X168653333Y-82861904D01*
X168653333Y-82623809D01*
X168700952Y-82528571D01*
X168748571Y-82480952D01*
X168843809Y-82433333D01*
X169081904Y-82433333D01*
X169177142Y-82480952D01*
X169224761Y-82528571D01*
X169272380Y-82623809D01*
X169272380Y-82861904D01*
X169224761Y-82957142D01*
X169177142Y-83004761D01*
D11*
%TO.C,J33*%
X183370000Y-36670000D02*
X183370000Y-36730000D01*
X183370000Y-36670000D02*
X186030000Y-36670000D01*
X183370000Y-34070000D02*
X184700000Y-34070000D01*
X183370000Y-36730000D02*
X186030000Y-36730000D01*
X183370000Y-35400000D02*
X183370000Y-34070000D01*
X186030000Y-36670000D02*
X186030000Y-36730000D01*
%TO.C,J44*%
X208840000Y-43190000D02*
X211500000Y-43190000D01*
X208840000Y-41860000D02*
X208840000Y-40530000D01*
X208840000Y-40530000D02*
X210170000Y-40530000D01*
X208840000Y-43130000D02*
X208840000Y-43190000D01*
X211500000Y-43130000D02*
X211500000Y-43190000D01*
X208840000Y-43130000D02*
X211500000Y-43130000D01*
%TO.C,J21*%
X219670000Y-36470000D02*
X222330000Y-36470000D01*
X219670000Y-35200000D02*
X219670000Y-33870000D01*
X219670000Y-36470000D02*
X219670000Y-36530000D01*
X219670000Y-33870000D02*
X221000000Y-33870000D01*
X222330000Y-36470000D02*
X222330000Y-36530000D01*
X219670000Y-36530000D02*
X222330000Y-36530000D01*
%TO.C,R10*%
X152160436Y-59135000D02*
X152614564Y-59135000D01*
X152160436Y-57665000D02*
X152614564Y-57665000D01*
%TO.C,J27*%
X191330000Y-36470000D02*
X191330000Y-36530000D01*
X188670000Y-36470000D02*
X188670000Y-36530000D01*
X188670000Y-36530000D02*
X191330000Y-36530000D01*
X188670000Y-33870000D02*
X190000000Y-33870000D01*
X188670000Y-36470000D02*
X191330000Y-36470000D01*
X188670000Y-35200000D02*
X188670000Y-33870000D01*
%TO.C,J12*%
X228630000Y-84270000D02*
X228630000Y-84330000D01*
X225970000Y-83000000D02*
X225970000Y-81670000D01*
X225970000Y-84270000D02*
X228630000Y-84270000D01*
X225970000Y-84330000D02*
X228630000Y-84330000D01*
X225970000Y-84270000D02*
X225970000Y-84330000D01*
X225970000Y-81670000D02*
X227300000Y-81670000D01*
%TO.C,J20*%
X204370000Y-84430000D02*
X207030000Y-84430000D01*
X204370000Y-81770000D02*
X205700000Y-81770000D01*
X204370000Y-84370000D02*
X207030000Y-84370000D01*
X204370000Y-84370000D02*
X204370000Y-84430000D01*
X204370000Y-83100000D02*
X204370000Y-81770000D01*
X207030000Y-84370000D02*
X207030000Y-84430000D01*
%TO.C,J1*%
X210310000Y-80117500D02*
X210760000Y-80117500D01*
X215910000Y-85067500D02*
X215910000Y-84817500D01*
X208110000Y-85067500D02*
X208110000Y-84817500D01*
X208110000Y-80667500D02*
X208560000Y-80667500D01*
X215910000Y-82517500D02*
X215910000Y-80667500D01*
X210310000Y-80117500D02*
X210310000Y-80567500D01*
X215910000Y-80667500D02*
X215460000Y-80667500D01*
X208110000Y-82517500D02*
X208110000Y-80667500D01*
%TO.C,J45*%
X233450000Y-84370000D02*
X236110000Y-84370000D01*
X233450000Y-81710000D02*
X234780000Y-81710000D01*
X233450000Y-84310000D02*
X233450000Y-84370000D01*
X236110000Y-84310000D02*
X236110000Y-84370000D01*
X233450000Y-84310000D02*
X236110000Y-84310000D01*
X233450000Y-83040000D02*
X233450000Y-81710000D01*
%TO.C,J38*%
X197170000Y-81770000D02*
X198500000Y-81770000D01*
X197170000Y-84370000D02*
X199830000Y-84370000D01*
X197170000Y-84370000D02*
X197170000Y-84430000D01*
X197170000Y-83100000D02*
X197170000Y-81770000D01*
X199830000Y-84370000D02*
X199830000Y-84430000D01*
X197170000Y-84430000D02*
X199830000Y-84430000D01*
%TO.C,Y2*%
X186000000Y-65600000D02*
X186000000Y-62300000D01*
X186000000Y-62300000D02*
X182000000Y-62300000D01*
%TO.C,J40*%
X215230000Y-43100000D02*
X215230000Y-43160000D01*
X212570000Y-43100000D02*
X215230000Y-43100000D01*
X212570000Y-40500000D02*
X213900000Y-40500000D01*
X212570000Y-43100000D02*
X212570000Y-43160000D01*
X212570000Y-41830000D02*
X212570000Y-40500000D01*
X212570000Y-43160000D02*
X215230000Y-43160000D01*
%TO.C,J18*%
X200770000Y-84370000D02*
X203430000Y-84370000D01*
X200770000Y-84430000D02*
X203430000Y-84430000D01*
X200770000Y-84370000D02*
X200770000Y-84430000D01*
X200770000Y-83100000D02*
X200770000Y-81770000D01*
X203430000Y-84370000D02*
X203430000Y-84430000D01*
X200770000Y-81770000D02*
X202100000Y-81770000D01*
%TO.C,J24*%
X208070000Y-36270000D02*
X208070000Y-36330000D01*
X208070000Y-33670000D02*
X209400000Y-33670000D01*
X208070000Y-35000000D02*
X208070000Y-33670000D01*
X208070000Y-36270000D02*
X210730000Y-36270000D01*
X208070000Y-36330000D02*
X210730000Y-36330000D01*
X210730000Y-36270000D02*
X210730000Y-36330000D01*
%TO.C,J32*%
X162470000Y-41670000D02*
X162470000Y-41730000D01*
X162470000Y-41670000D02*
X165130000Y-41670000D01*
X162470000Y-41730000D02*
X165130000Y-41730000D01*
X162470000Y-39070000D02*
X163800000Y-39070000D01*
X162470000Y-40400000D02*
X162470000Y-39070000D01*
X165130000Y-41670000D02*
X165130000Y-41730000D01*
%TO.C,J22*%
X192630000Y-83100000D02*
X192630000Y-84430000D01*
X189970000Y-81830000D02*
X189970000Y-81770000D01*
X192630000Y-81830000D02*
X192630000Y-81770000D01*
X192630000Y-81770000D02*
X189970000Y-81770000D01*
X192630000Y-81830000D02*
X189970000Y-81830000D01*
X192630000Y-84430000D02*
X191300000Y-84430000D01*
%TO.C,J9*%
X212270000Y-33870000D02*
X213600000Y-33870000D01*
X212270000Y-35200000D02*
X212270000Y-33870000D01*
X214930000Y-36470000D02*
X214930000Y-36530000D01*
X212270000Y-36470000D02*
X212270000Y-36530000D01*
X212270000Y-36530000D02*
X214930000Y-36530000D01*
X212270000Y-36470000D02*
X214930000Y-36470000D01*
%TO.C,J26*%
X199470000Y-36530000D02*
X202130000Y-36530000D01*
X199470000Y-33870000D02*
X200800000Y-33870000D01*
X199470000Y-36470000D02*
X202130000Y-36470000D01*
X202130000Y-36470000D02*
X202130000Y-36530000D01*
X199470000Y-35200000D02*
X199470000Y-33870000D01*
X199470000Y-36470000D02*
X199470000Y-36530000D01*
%TO.C,J30*%
X158870000Y-41730000D02*
X161530000Y-41730000D01*
X158870000Y-40400000D02*
X158870000Y-39070000D01*
X161530000Y-41670000D02*
X161530000Y-41730000D01*
X158870000Y-39070000D02*
X160200000Y-39070000D01*
X158870000Y-41670000D02*
X161530000Y-41670000D01*
X158870000Y-41670000D02*
X158870000Y-41730000D01*
%TO.C,J4*%
X205930000Y-74730000D02*
X204600000Y-74730000D01*
X205930000Y-72130000D02*
X203270000Y-72130000D01*
X203270000Y-72130000D02*
X203270000Y-44130000D01*
X205930000Y-44130000D02*
X203270000Y-44130000D01*
X205930000Y-72130000D02*
X205930000Y-44130000D01*
X205930000Y-73400000D02*
X205930000Y-74730000D01*
%TO.C,C6*%
X243690000Y-49009420D02*
X243690000Y-49290580D01*
X244710000Y-49009420D02*
X244710000Y-49290580D01*
%TO.C,J16*%
X244870000Y-53270000D02*
X246200000Y-53270000D01*
X244870000Y-55870000D02*
X247530000Y-55870000D01*
X244870000Y-55870000D02*
X244870000Y-55930000D01*
X247530000Y-55870000D02*
X247530000Y-55930000D01*
X244870000Y-55930000D02*
X247530000Y-55930000D01*
X244870000Y-54600000D02*
X244870000Y-53270000D01*
%TO.C,SW1*%
X152400000Y-48150000D02*
X155000000Y-48150000D01*
X150500000Y-54450000D02*
X150250000Y-54450000D01*
X156900000Y-48150000D02*
X157150000Y-48150000D01*
X150250000Y-48150000D02*
X150500000Y-48150000D01*
X150250000Y-54450000D02*
X150250000Y-48150000D01*
X155000000Y-54450000D02*
X152400000Y-54450000D01*
X157150000Y-48150000D02*
X157150000Y-54450000D01*
X157150000Y-54450000D02*
X156900000Y-54450000D01*
%TO.C,J42*%
X179610000Y-45430000D02*
X180940000Y-45430000D01*
X179610000Y-46760000D02*
X179610000Y-45430000D01*
X179610000Y-48030000D02*
X182270000Y-48030000D01*
X179610000Y-48090000D02*
X182270000Y-48090000D01*
X182270000Y-48030000D02*
X182270000Y-48090000D01*
X179610000Y-48030000D02*
X179610000Y-48090000D01*
%TO.C,J41*%
X233490000Y-76830000D02*
X234820000Y-76830000D01*
X236150000Y-79430000D02*
X236150000Y-79490000D01*
X233490000Y-79490000D02*
X236150000Y-79490000D01*
X233490000Y-78160000D02*
X233490000Y-76830000D01*
X233490000Y-79430000D02*
X236150000Y-79430000D01*
X233490000Y-79430000D02*
X233490000Y-79490000D01*
%TO.C,Y1*%
X238900000Y-47800000D02*
X238900000Y-51100000D01*
X238900000Y-51100000D02*
X242900000Y-51100000D01*
%TO.C,C5*%
X237290000Y-49240580D02*
X237290000Y-48959420D01*
X238310000Y-49240580D02*
X238310000Y-48959420D01*
%TO.C,C9*%
X154065580Y-64410000D02*
X153784420Y-64410000D01*
X154065580Y-63390000D02*
X153784420Y-63390000D01*
%TO.C,J17*%
X189030000Y-81830000D02*
X186370000Y-81830000D01*
X186370000Y-81830000D02*
X186370000Y-81770000D01*
X189030000Y-81770000D02*
X186370000Y-81770000D01*
X189030000Y-83100000D02*
X189030000Y-84430000D01*
X189030000Y-81830000D02*
X189030000Y-81770000D01*
X189030000Y-84430000D02*
X187700000Y-84430000D01*
%TO.C,J6*%
X161450000Y-36630000D02*
X174210000Y-36630000D01*
X158850000Y-36630000D02*
X158850000Y-35300000D01*
X161450000Y-33970000D02*
X174210000Y-33970000D01*
X161450000Y-36630000D02*
X161450000Y-33970000D01*
X160180000Y-36630000D02*
X158850000Y-36630000D01*
X174210000Y-36630000D02*
X174210000Y-33970000D01*
%TO.C,J14*%
X162370000Y-81770000D02*
X163700000Y-81770000D01*
X162370000Y-84430000D02*
X165030000Y-84430000D01*
X162370000Y-83100000D02*
X162370000Y-81770000D01*
X165030000Y-84370000D02*
X165030000Y-84430000D01*
X162370000Y-84370000D02*
X165030000Y-84370000D01*
X162370000Y-84370000D02*
X162370000Y-84430000D01*
%TO.C,U5*%
X163410000Y-42770000D02*
X161760000Y-42770000D01*
X167060000Y-78450000D02*
X167060000Y-42770000D01*
X167060000Y-42770000D02*
X165410000Y-42770000D01*
X161760000Y-78450000D02*
X167060000Y-78450000D01*
X161760000Y-42770000D02*
X161760000Y-78450000D01*
X163410000Y-42770000D02*
G75*
G03*
X165410000Y-42770000I1000000J0D01*
G01*
%TO.C,R11*%
X152614564Y-60165000D02*
X152160436Y-60165000D01*
X152614564Y-61635000D02*
X152160436Y-61635000D01*
%TO.C,C8*%
X180110000Y-64365580D02*
X180110000Y-64084420D01*
X179090000Y-64365580D02*
X179090000Y-64084420D01*
%TO.C,J35*%
X166070000Y-39070000D02*
X167400000Y-39070000D01*
X168730000Y-41670000D02*
X168730000Y-41730000D01*
X166070000Y-41730000D02*
X168730000Y-41730000D01*
X166070000Y-41670000D02*
X166070000Y-41730000D01*
X166070000Y-40400000D02*
X166070000Y-39070000D01*
X166070000Y-41670000D02*
X168730000Y-41670000D01*
%TO.C,R7*%
X241212258Y-45777500D02*
X240737742Y-45777500D01*
X241212258Y-46822500D02*
X240737742Y-46822500D01*
%TO.C,J37*%
X165970000Y-81770000D02*
X167300000Y-81770000D01*
X168630000Y-84370000D02*
X168630000Y-84430000D01*
X165970000Y-84430000D02*
X168630000Y-84430000D01*
X165970000Y-84370000D02*
X168630000Y-84370000D01*
X165970000Y-83100000D02*
X165970000Y-81770000D01*
X165970000Y-84370000D02*
X165970000Y-84430000D01*
%TO.C,C7*%
X184165580Y-60910000D02*
X183884420Y-60910000D01*
X184165580Y-59890000D02*
X183884420Y-59890000D01*
%TO.C,J23*%
X182330000Y-34130000D02*
X179670000Y-34130000D01*
X182330000Y-36730000D02*
X181000000Y-36730000D01*
X182330000Y-35400000D02*
X182330000Y-36730000D01*
X182330000Y-34070000D02*
X179670000Y-34070000D01*
X179670000Y-34130000D02*
X179670000Y-34070000D01*
X182330000Y-34130000D02*
X182330000Y-34070000D01*
%TO.C,J7*%
X172630000Y-69805000D02*
X171300000Y-69805000D01*
X172630000Y-68475000D02*
X172630000Y-69805000D01*
X172630000Y-67205000D02*
X169970000Y-67205000D01*
X172630000Y-49365000D02*
X169970000Y-49365000D01*
X172630000Y-67205000D02*
X172630000Y-49365000D01*
X169970000Y-67205000D02*
X169970000Y-49365000D01*
%TO.C,J10*%
X218670000Y-84330000D02*
X221330000Y-84330000D01*
X221330000Y-84270000D02*
X221330000Y-84330000D01*
X218670000Y-81670000D02*
X220000000Y-81670000D01*
X218670000Y-84270000D02*
X221330000Y-84270000D01*
X218670000Y-83000000D02*
X218670000Y-81670000D01*
X218670000Y-84270000D02*
X218670000Y-84330000D01*
%TO.C,J29*%
X195870000Y-33870000D02*
X197200000Y-33870000D01*
X195870000Y-36470000D02*
X198530000Y-36470000D01*
X195870000Y-36530000D02*
X198530000Y-36530000D01*
X198530000Y-36470000D02*
X198530000Y-36530000D01*
X195870000Y-35200000D02*
X195870000Y-33870000D01*
X195870000Y-36470000D02*
X195870000Y-36530000D01*
%TO.C,J19*%
X223270000Y-36470000D02*
X225930000Y-36470000D01*
X223270000Y-36470000D02*
X223270000Y-36530000D01*
X223270000Y-36530000D02*
X225930000Y-36530000D01*
X223270000Y-35200000D02*
X223270000Y-33870000D01*
X223270000Y-33870000D02*
X224600000Y-33870000D01*
X225930000Y-36470000D02*
X225930000Y-36530000D01*
%TO.C,J13*%
X229570000Y-84330000D02*
X232230000Y-84330000D01*
X229570000Y-84270000D02*
X229570000Y-84330000D01*
X229570000Y-83000000D02*
X229570000Y-81670000D01*
X229570000Y-81670000D02*
X230900000Y-81670000D01*
X229570000Y-84270000D02*
X232230000Y-84270000D01*
X232230000Y-84270000D02*
X232230000Y-84330000D01*
%TO.C,J31*%
X244870000Y-60470000D02*
X246200000Y-60470000D01*
X247530000Y-63070000D02*
X247530000Y-63130000D01*
X244870000Y-63130000D02*
X247530000Y-63130000D01*
X244870000Y-63070000D02*
X244870000Y-63130000D01*
X244870000Y-61800000D02*
X244870000Y-60470000D01*
X244870000Y-63070000D02*
X247530000Y-63070000D01*
%TO.C,J8*%
X215970000Y-36530000D02*
X218630000Y-36530000D01*
X218630000Y-36470000D02*
X218630000Y-36530000D01*
X215970000Y-33870000D02*
X217300000Y-33870000D01*
X215970000Y-35200000D02*
X215970000Y-33870000D01*
X215970000Y-36470000D02*
X218630000Y-36470000D01*
X215970000Y-36470000D02*
X215970000Y-36530000D01*
%TO.C,C10*%
X151310000Y-67865580D02*
X151310000Y-67584420D01*
X150290000Y-67865580D02*
X150290000Y-67584420D01*
%TO.C,U4*%
X190360000Y-78250000D02*
X195660000Y-78250000D01*
X190360000Y-42570000D02*
X190360000Y-78250000D01*
X192010000Y-42570000D02*
X190360000Y-42570000D01*
X195660000Y-78250000D02*
X195660000Y-42570000D01*
X195660000Y-42570000D02*
X194010000Y-42570000D01*
X192010000Y-42570000D02*
G75*
G03*
X194010000Y-42570000I1000000J0D01*
G01*
%TO.C,J28*%
X194930000Y-36470000D02*
X194930000Y-36530000D01*
X192270000Y-36470000D02*
X194930000Y-36470000D01*
X192270000Y-35200000D02*
X192270000Y-33870000D01*
X192270000Y-36530000D02*
X194930000Y-36530000D01*
X192270000Y-33870000D02*
X193600000Y-33870000D01*
X192270000Y-36470000D02*
X192270000Y-36530000D01*
%TO.C,J36*%
X148570000Y-73100000D02*
X148570000Y-71770000D01*
X148570000Y-74370000D02*
X148570000Y-74430000D01*
X148570000Y-71770000D02*
X149900000Y-71770000D01*
X148570000Y-74370000D02*
X151230000Y-74370000D01*
X151230000Y-74370000D02*
X151230000Y-74430000D01*
X148570000Y-74430000D02*
X151230000Y-74430000D01*
%TO.C,J39*%
X158770000Y-83100000D02*
X158770000Y-81770000D01*
X158770000Y-84370000D02*
X161430000Y-84370000D01*
X158770000Y-81770000D02*
X160100000Y-81770000D01*
X158770000Y-84430000D02*
X161430000Y-84430000D01*
X158770000Y-84370000D02*
X158770000Y-84430000D01*
X161430000Y-84370000D02*
X161430000Y-84430000D01*
%TO.C,J15*%
X193570000Y-83100000D02*
X193570000Y-81770000D01*
X193570000Y-81770000D02*
X194900000Y-81770000D01*
X196230000Y-84370000D02*
X196230000Y-84430000D01*
X193570000Y-84430000D02*
X196230000Y-84430000D01*
X193570000Y-84370000D02*
X193570000Y-84430000D01*
X193570000Y-84370000D02*
X196230000Y-84370000D01*
%TO.C,R8*%
X183837742Y-68777500D02*
X184312258Y-68777500D01*
X183837742Y-69822500D02*
X184312258Y-69822500D01*
%TO.C,J43*%
X175960000Y-47990000D02*
X178620000Y-47990000D01*
X175960000Y-47990000D02*
X175960000Y-48050000D01*
X175960000Y-45390000D02*
X177290000Y-45390000D01*
X175960000Y-46720000D02*
X175960000Y-45390000D01*
X178620000Y-47990000D02*
X178620000Y-48050000D01*
X175960000Y-48050000D02*
X178620000Y-48050000D01*
%TO.C,U3*%
X234640000Y-34750000D02*
X229340000Y-34750000D01*
X232990000Y-70430000D02*
X234640000Y-70430000D01*
X229340000Y-70430000D02*
X230990000Y-70430000D01*
X234640000Y-70430000D02*
X234640000Y-34750000D01*
X229340000Y-34750000D02*
X229340000Y-70430000D01*
X232990000Y-70430000D02*
G75*
G03*
X230990000Y-70430000I-1000000J0D01*
G01*
%TO.C,J25*%
X203870000Y-35200000D02*
X203870000Y-33870000D01*
X203870000Y-36470000D02*
X206530000Y-36470000D01*
X203870000Y-36530000D02*
X206530000Y-36530000D01*
X206530000Y-36470000D02*
X206530000Y-36530000D01*
X203870000Y-36470000D02*
X203870000Y-36530000D01*
X203870000Y-33870000D02*
X205200000Y-33870000D01*
%TO.C,Y3*%
X156000000Y-66100000D02*
X152000000Y-66100000D01*
X156000000Y-69400000D02*
X156000000Y-66100000D01*
%TO.C,J34*%
X247530000Y-59470000D02*
X247530000Y-59530000D01*
X244870000Y-56870000D02*
X246200000Y-56870000D01*
X244870000Y-59530000D02*
X247530000Y-59530000D01*
X244870000Y-59470000D02*
X247530000Y-59470000D01*
X244870000Y-58200000D02*
X244870000Y-56870000D01*
X244870000Y-59470000D02*
X244870000Y-59530000D01*
%TO.C,J3*%
X246450000Y-71670000D02*
X247780000Y-71670000D01*
X217180000Y-71670000D02*
X217180000Y-74330000D01*
X245180000Y-71670000D02*
X245180000Y-74330000D01*
X245180000Y-74330000D02*
X217180000Y-74330000D01*
X245180000Y-71670000D02*
X217180000Y-71670000D01*
X247780000Y-71670000D02*
X247780000Y-73000000D01*
%TO.C,R9*%
X157777500Y-68062258D02*
X157777500Y-67587742D01*
X158822500Y-68062258D02*
X158822500Y-67587742D01*
%TO.C,J11*%
X222370000Y-81670000D02*
X223700000Y-81670000D01*
X222370000Y-84330000D02*
X225030000Y-84330000D01*
X222370000Y-83000000D02*
X222370000Y-81670000D01*
X222370000Y-84270000D02*
X222370000Y-84330000D01*
X225030000Y-84270000D02*
X225030000Y-84330000D01*
X222370000Y-84270000D02*
X225030000Y-84270000D01*
%TO.C,J5*%
X169820000Y-84430000D02*
X169820000Y-83100000D01*
X172420000Y-84430000D02*
X172420000Y-81770000D01*
X185180000Y-84430000D02*
X185180000Y-81770000D01*
X171150000Y-84430000D02*
X169820000Y-84430000D01*
X172420000Y-81770000D02*
X185180000Y-81770000D01*
X172420000Y-84430000D02*
X185180000Y-84430000D01*
%TD*%
M02*
