%TF.GenerationSoftware,KiCad,Pcbnew,(6.0.2)*%
%TF.CreationDate,2022-03-17T16:11:47+00:00*%
%TF.ProjectId,PROJ324-Ard1,50524f4a-3332-4342-9d41-7264312e6b69,rev?*%
%TF.SameCoordinates,Original*%
%TF.FileFunction,Soldermask,Top*%
%TF.FilePolarity,Negative*%
%FSLAX46Y46*%
G04 Gerber Fmt 4.6, Leading zero omitted, Abs format (unit mm)*
G04 Created by KiCad (PCBNEW (6.0.2)) date 2022-03-17 16:11:47*
%MOMM*%
%LPD*%
G01*
G04 APERTURE LIST*
G04 Aperture macros list*
%AMRoundRect*
0 Rectangle with rounded corners*
0 $1 Rounding radius*
0 $2 $3 $4 $5 $6 $7 $8 $9 X,Y pos of 4 corners*
0 Add a 4 corners polygon primitive as box body*
4,1,4,$2,$3,$4,$5,$6,$7,$8,$9,$2,$3,0*
0 Add four circle primitives for the rounded corners*
1,1,$1+$1,$2,$3*
1,1,$1+$1,$4,$5*
1,1,$1+$1,$6,$7*
1,1,$1+$1,$8,$9*
0 Add four rect primitives between the rounded corners*
20,1,$1+$1,$2,$3,$4,$5,0*
20,1,$1+$1,$4,$5,$6,$7,0*
20,1,$1+$1,$6,$7,$8,$9,0*
20,1,$1+$1,$8,$9,$2,$3,0*%
G04 Aperture macros list end*
%ADD10R,1.700000X1.700000*%
%ADD11RoundRect,0.250000X-0.262500X-0.450000X0.262500X-0.450000X0.262500X0.450000X-0.262500X0.450000X0*%
%ADD12R,0.400000X1.350000*%
%ADD13C,1.450000*%
%ADD14R,1.500000X1.900000*%
%ADD15O,1.200000X1.900000*%
%ADD16R,1.200000X1.900000*%
%ADD17R,1.400000X1.200000*%
%ADD18O,1.700000X1.700000*%
%ADD19RoundRect,0.225000X-0.250000X0.225000X-0.250000X-0.225000X0.250000X-0.225000X0.250000X0.225000X0*%
%ADD20R,1.300000X1.550000*%
%ADD21C,8.600000*%
%ADD22C,0.900000*%
%ADD23RoundRect,0.225000X0.250000X-0.225000X0.250000X0.225000X-0.250000X0.225000X-0.250000X-0.225000X0*%
%ADD24RoundRect,0.225000X0.225000X0.250000X-0.225000X0.250000X-0.225000X-0.250000X0.225000X-0.250000X0*%
%ADD25R,1.600000X1.600000*%
%ADD26O,1.600000X1.600000*%
%ADD27RoundRect,0.250000X0.262500X0.450000X-0.262500X0.450000X-0.262500X-0.450000X0.262500X-0.450000X0*%
%ADD28RoundRect,0.200000X0.200000X0.275000X-0.200000X0.275000X-0.200000X-0.275000X0.200000X-0.275000X0*%
%ADD29RoundRect,0.200000X-0.200000X-0.275000X0.200000X-0.275000X0.200000X0.275000X-0.200000X0.275000X0*%
%ADD30RoundRect,0.200000X0.275000X-0.200000X0.275000X0.200000X-0.275000X0.200000X-0.275000X-0.200000X0*%
G04 APERTURE END LIST*
D10*
%TO.C,J33*%
X184700000Y-35400000D03*
%TD*%
%TO.C,J44*%
X210170000Y-41860000D03*
%TD*%
%TO.C,J21*%
X221000000Y-35200000D03*
%TD*%
D11*
%TO.C,R10*%
X151475000Y-58400000D03*
X153300000Y-58400000D03*
%TD*%
D10*
%TO.C,J27*%
X190000000Y-35200000D03*
%TD*%
%TO.C,J12*%
X227300000Y-83000000D03*
%TD*%
%TO.C,J20*%
X205700000Y-83100000D03*
%TD*%
D12*
%TO.C,J1*%
X210710000Y-80967500D03*
X211360000Y-80967500D03*
X212010000Y-80967500D03*
X212660000Y-80967500D03*
X213310000Y-80967500D03*
D13*
X209510000Y-80967500D03*
D14*
X211010000Y-83667500D03*
D15*
X215510000Y-83667500D03*
D16*
X209110000Y-83667500D03*
D14*
X213010000Y-83667500D03*
D15*
X208510000Y-83667500D03*
D13*
X214510000Y-80967500D03*
D16*
X214910000Y-83667500D03*
%TD*%
D10*
%TO.C,J45*%
X234780000Y-83040000D03*
%TD*%
%TO.C,J38*%
X198500000Y-83100000D03*
%TD*%
D17*
%TO.C,Y2*%
X185100000Y-63100000D03*
X182900000Y-63100000D03*
X182900000Y-64800000D03*
X185100000Y-64800000D03*
%TD*%
D10*
%TO.C,J40*%
X213900000Y-41830000D03*
%TD*%
%TO.C,J18*%
X202100000Y-83100000D03*
%TD*%
%TO.C,J24*%
X209400000Y-35000000D03*
%TD*%
%TO.C,J32*%
X163800000Y-40400000D03*
%TD*%
%TO.C,J22*%
X191300000Y-83100000D03*
%TD*%
%TO.C,J9*%
X213600000Y-35200000D03*
%TD*%
%TO.C,J26*%
X200800000Y-35200000D03*
%TD*%
%TO.C,J30*%
X160200000Y-40400000D03*
%TD*%
%TO.C,J4*%
X204600000Y-73400000D03*
D18*
X204600000Y-70860000D03*
X204600000Y-68320000D03*
X204600000Y-65780000D03*
X204600000Y-63240000D03*
X204600000Y-60700000D03*
X204600000Y-58160000D03*
X204600000Y-55620000D03*
X204600000Y-53080000D03*
X204600000Y-50540000D03*
X204600000Y-48000000D03*
X204600000Y-45460000D03*
%TD*%
D19*
%TO.C,C6*%
X244200000Y-48375000D03*
X244200000Y-49925000D03*
%TD*%
D10*
%TO.C,J16*%
X246200000Y-54600000D03*
%TD*%
D20*
%TO.C,SW1*%
X155950000Y-47325000D03*
X155950000Y-55275000D03*
X151450000Y-55275000D03*
X151450000Y-47325000D03*
%TD*%
D10*
%TO.C,J42*%
X180940000Y-46760000D03*
%TD*%
%TO.C,J41*%
X234820000Y-78160000D03*
%TD*%
D21*
%TO.C,H3*%
X242400000Y-79600000D03*
D22*
X242400000Y-76375000D03*
X240119581Y-81880419D03*
X239175000Y-79600000D03*
X244680419Y-77319581D03*
X245625000Y-79600000D03*
X240119581Y-77319581D03*
X244680419Y-81880419D03*
X242400000Y-82825000D03*
%TD*%
%TO.C,H2*%
X151119581Y-81880419D03*
D21*
X153400000Y-79600000D03*
D22*
X155680419Y-77319581D03*
X156625000Y-79600000D03*
X153400000Y-76375000D03*
X151119581Y-77319581D03*
X155680419Y-81880419D03*
X150175000Y-79600000D03*
X153400000Y-82825000D03*
%TD*%
D17*
%TO.C,Y1*%
X239800000Y-50300000D03*
X242000000Y-50300000D03*
X242000000Y-48600000D03*
X239800000Y-48600000D03*
%TD*%
D23*
%TO.C,C5*%
X237800000Y-49875000D03*
X237800000Y-48325000D03*
%TD*%
D24*
%TO.C,C9*%
X154700000Y-63900000D03*
X153150000Y-63900000D03*
%TD*%
D10*
%TO.C,J17*%
X187700000Y-83100000D03*
%TD*%
%TO.C,J6*%
X160180000Y-35300000D03*
D18*
X162720000Y-35300000D03*
X165260000Y-35300000D03*
X167800000Y-35300000D03*
X170340000Y-35300000D03*
X172880000Y-35300000D03*
%TD*%
D10*
%TO.C,J14*%
X163700000Y-83100000D03*
%TD*%
D25*
%TO.C,U5*%
X160600000Y-44100000D03*
D26*
X160600000Y-46640000D03*
X160600000Y-49180000D03*
X160600000Y-51720000D03*
X160600000Y-54260000D03*
X160600000Y-56800000D03*
X160600000Y-59340000D03*
X160600000Y-61880000D03*
X160600000Y-64420000D03*
X160600000Y-66960000D03*
X160600000Y-69500000D03*
X160600000Y-72040000D03*
X160600000Y-74580000D03*
X160600000Y-77120000D03*
X168220000Y-77120000D03*
X168220000Y-74580000D03*
X168220000Y-72040000D03*
X168220000Y-69500000D03*
X168220000Y-66960000D03*
X168220000Y-64420000D03*
X168220000Y-61880000D03*
X168220000Y-59340000D03*
X168220000Y-56800000D03*
X168220000Y-54260000D03*
X168220000Y-51720000D03*
X168220000Y-49180000D03*
X168220000Y-46640000D03*
X168220000Y-44100000D03*
%TD*%
D27*
%TO.C,R11*%
X153300000Y-60900000D03*
X151475000Y-60900000D03*
%TD*%
D22*
%TO.C,H4*%
X244680419Y-36519581D03*
X245625000Y-38800000D03*
D21*
X242400000Y-38800000D03*
D22*
X242400000Y-35575000D03*
X244680419Y-41080419D03*
X242400000Y-42025000D03*
X239175000Y-38800000D03*
X240119581Y-36519581D03*
X240119581Y-41080419D03*
%TD*%
D23*
%TO.C,C8*%
X179600000Y-65000000D03*
X179600000Y-63450000D03*
%TD*%
D10*
%TO.C,J35*%
X167400000Y-40400000D03*
%TD*%
D28*
%TO.C,R7*%
X241800000Y-46300000D03*
X240150000Y-46300000D03*
%TD*%
D10*
%TO.C,J37*%
X167300000Y-83100000D03*
%TD*%
D24*
%TO.C,C7*%
X184800000Y-60400000D03*
X183250000Y-60400000D03*
%TD*%
D10*
%TO.C,J23*%
X181000000Y-35400000D03*
%TD*%
%TO.C,J7*%
X171300000Y-68475000D03*
D18*
X171300000Y-65935000D03*
X171300000Y-63395000D03*
X171300000Y-60855000D03*
X171300000Y-58315000D03*
X171300000Y-55775000D03*
X171300000Y-53235000D03*
X171300000Y-50695000D03*
%TD*%
D10*
%TO.C,J10*%
X220000000Y-83000000D03*
%TD*%
%TO.C,J29*%
X197200000Y-35200000D03*
%TD*%
%TO.C,J19*%
X224600000Y-35200000D03*
%TD*%
%TO.C,J13*%
X230900000Y-83000000D03*
%TD*%
%TO.C,J31*%
X246200000Y-61800000D03*
%TD*%
%TO.C,J8*%
X217300000Y-35200000D03*
%TD*%
D23*
%TO.C,C10*%
X150800000Y-68500000D03*
X150800000Y-66950000D03*
%TD*%
D25*
%TO.C,U4*%
X189200000Y-43900000D03*
D26*
X189200000Y-46440000D03*
X189200000Y-48980000D03*
X189200000Y-51520000D03*
X189200000Y-54060000D03*
X189200000Y-56600000D03*
X189200000Y-59140000D03*
X189200000Y-61680000D03*
X189200000Y-64220000D03*
X189200000Y-66760000D03*
X189200000Y-69300000D03*
X189200000Y-71840000D03*
X189200000Y-74380000D03*
X189200000Y-76920000D03*
X196820000Y-76920000D03*
X196820000Y-74380000D03*
X196820000Y-71840000D03*
X196820000Y-69300000D03*
X196820000Y-66760000D03*
X196820000Y-64220000D03*
X196820000Y-61680000D03*
X196820000Y-59140000D03*
X196820000Y-56600000D03*
X196820000Y-54060000D03*
X196820000Y-51520000D03*
X196820000Y-48980000D03*
X196820000Y-46440000D03*
X196820000Y-43900000D03*
%TD*%
D10*
%TO.C,J28*%
X193600000Y-35200000D03*
%TD*%
%TO.C,J36*%
X149900000Y-73100000D03*
%TD*%
D22*
%TO.C,H1*%
X151319581Y-36519581D03*
D21*
X153600000Y-38800000D03*
D22*
X151319581Y-41080419D03*
X155880419Y-41080419D03*
X150375000Y-38800000D03*
X155880419Y-36519581D03*
X153600000Y-35575000D03*
X153600000Y-42025000D03*
X156825000Y-38800000D03*
%TD*%
D10*
%TO.C,J39*%
X160100000Y-83100000D03*
%TD*%
%TO.C,J15*%
X194900000Y-83100000D03*
%TD*%
D29*
%TO.C,R8*%
X183250000Y-69300000D03*
X184900000Y-69300000D03*
%TD*%
D10*
%TO.C,J43*%
X177290000Y-46720000D03*
%TD*%
D25*
%TO.C,U3*%
X235800000Y-69100000D03*
D26*
X235800000Y-66560000D03*
X235800000Y-64020000D03*
X235800000Y-61480000D03*
X235800000Y-58940000D03*
X235800000Y-56400000D03*
X235800000Y-53860000D03*
X235800000Y-51320000D03*
X235800000Y-48780000D03*
X235800000Y-46240000D03*
X235800000Y-43700000D03*
X235800000Y-41160000D03*
X235800000Y-38620000D03*
X235800000Y-36080000D03*
X228180000Y-36080000D03*
X228180000Y-38620000D03*
X228180000Y-41160000D03*
X228180000Y-43700000D03*
X228180000Y-46240000D03*
X228180000Y-48780000D03*
X228180000Y-51320000D03*
X228180000Y-53860000D03*
X228180000Y-56400000D03*
X228180000Y-58940000D03*
X228180000Y-61480000D03*
X228180000Y-64020000D03*
X228180000Y-66560000D03*
X228180000Y-69100000D03*
%TD*%
D10*
%TO.C,J25*%
X205200000Y-35200000D03*
%TD*%
D17*
%TO.C,Y3*%
X155100000Y-66900000D03*
X152900000Y-66900000D03*
X152900000Y-68600000D03*
X155100000Y-68600000D03*
%TD*%
D10*
%TO.C,J34*%
X246200000Y-58200000D03*
%TD*%
%TO.C,J3*%
X246450000Y-73000000D03*
D18*
X243910000Y-73000000D03*
X241370000Y-73000000D03*
X238830000Y-73000000D03*
X236290000Y-73000000D03*
X233750000Y-73000000D03*
X231210000Y-73000000D03*
X228670000Y-73000000D03*
X226130000Y-73000000D03*
X223590000Y-73000000D03*
X221050000Y-73000000D03*
X218510000Y-73000000D03*
%TD*%
D30*
%TO.C,R9*%
X158300000Y-68650000D03*
X158300000Y-67000000D03*
%TD*%
D10*
%TO.C,J11*%
X223700000Y-83000000D03*
%TD*%
%TO.C,J5*%
X171150000Y-83100000D03*
D18*
X173690000Y-83100000D03*
X176230000Y-83100000D03*
X178770000Y-83100000D03*
X181310000Y-83100000D03*
X183850000Y-83100000D03*
%TD*%
M02*
