M48
; DRILL file {KiCad (6.0.2)} date Thu Mar 17 16:11:31 2022
; FORMAT={2:4/ absolute / inch / suppress leading zeros}
; #@! TF.CreationDate,2022-03-17T16:11:31+00:00
; #@! TF.GenerationSoftware,Kicad,Pcbnew,(6.0.2)
; #@! TF.FileFunction,Plated,1,4,PTH
FMAT,2
INCH,TZ
; #@! TA.AperFunction,Plated,PTH,ViaDrill
T1C0.0157
; #@! TA.AperFunction,Plated,PTH,ComponentDrill
T2C0.0236
; #@! TA.AperFunction,Plated,PTH,ComponentDrill
T3C0.0315
; #@! TA.AperFunction,Plated,PTH,ComponentDrill
T4C0.0335
; #@! TA.AperFunction,Plated,PTH,ComponentDrill
T5C0.0394
; #@! TA.AperFunction,Plated,PTH,ComponentDrill
T6C0.1693
%
G90
G05
T1
X59449Y-25512
X59545Y-25907
X59961Y-25492
X60197Y-25803
X60906Y-24331
X61024Y-23346
X61260Y-23976
X61268Y-22992
X61398Y-19354
X61398Y-20709
X61693Y-27205
X61815Y-23154
X62035Y-21839
X62047Y-23976
X62205Y-22441
X62398Y-23362
X62484Y-24362
X63063Y-14453
X63071Y-14803
X64055Y-14843
X64063Y-14413
X64094Y-24409
X64134Y-23346
X65512Y-23071
X65512Y-23524
X66925Y-31780
X67362Y-18937
X67362Y-31772
X67917Y-31799
X68004Y-18972
X68154Y-21394
X68189Y-20512
X68386Y-31772
X68835Y-31811
X70866Y-24291
X71654Y-24055
X73583Y-26063
X75154Y-22866
X75154Y-23469
X75189Y-23894
X75197Y-24291
X75197Y-24681
X75382Y-23157
X76457Y-21299
X76575Y-23346
X76717Y-22894
X76772Y-23732
X78189Y-20591
X78701Y-22362
X79094Y-20866
X79390Y-18386
X79398Y-17461
X79400Y-17953
X79600Y-29000
X79600Y-29400
X81457Y-28937
X81500Y-28500
X82071Y-31177
X82421Y-31118
X82957Y-31161
X83858Y-31102
X84327Y-31327
X85760Y-29681
X86224Y-27677
X86303Y-29677
X86732Y-27693
X88819Y-25197
X88839Y-26220
X88906Y-20559
X89165Y-20961
X93661Y-21220
X93669Y-21673
X93740Y-20354
X94055Y-18588
X94094Y-23307
X94185Y-20626
X94409Y-24291
X95039Y-22756
X95591Y-20354
X95630Y-24291
X96339Y-20354
X96732Y-27780
X96839Y-29646
X97378Y-27780
X97394Y-29650
T2
X59124Y-31339
X59203Y-15276
X59496Y-30441
X59496Y-32236
X59575Y-14378
X59575Y-16173
X60394Y-30069
X60394Y-32608
X60472Y-14006
X60472Y-16545
X61292Y-30441
X61292Y-32236
X61370Y-14378
X61370Y-16173
X61663Y-31339
X61742Y-15276
X94163Y-15276
X94163Y-31339
X94535Y-14378
X94535Y-16173
X94535Y-30441
X94535Y-32236
X95433Y-14006
X95433Y-16545
X95433Y-30069
X95433Y-32608
X96331Y-14378
X96331Y-16173
X96331Y-30441
X96331Y-32236
X96703Y-15276
X96703Y-31339
T3
X63228Y-17362
X63228Y-18362
X63228Y-19362
X63228Y-20362
X63228Y-21362
X63228Y-22362
X63228Y-23362
X63228Y-24362
X63228Y-25362
X63228Y-26362
X63228Y-27362
X63228Y-28362
X63228Y-29362
X63228Y-30362
X66228Y-17362
X66228Y-18362
X66228Y-19362
X66228Y-20362
X66228Y-21362
X66228Y-22362
X66228Y-23362
X66228Y-24362
X66228Y-25362
X66228Y-26362
X66228Y-27362
X66228Y-28362
X66228Y-29362
X66228Y-30362
X74488Y-17283
X74488Y-18283
X74488Y-19283
X74488Y-20283
X74488Y-21283
X74488Y-22283
X74488Y-23283
X74488Y-24283
X74488Y-25283
X74488Y-26283
X74488Y-27283
X74488Y-28283
X74488Y-29283
X74488Y-30283
X77488Y-17283
X77488Y-18283
X77488Y-19283
X77488Y-20283
X77488Y-21283
X77488Y-22283
X77488Y-23283
X77488Y-24283
X77488Y-25283
X77488Y-26283
X77488Y-27283
X77488Y-28283
X77488Y-29283
X77488Y-30283
X89835Y-14205
X89835Y-15205
X89835Y-16205
X89835Y-17205
X89835Y-18205
X89835Y-19205
X89835Y-20205
X89835Y-21205
X89835Y-22205
X89835Y-23205
X89835Y-24205
X89835Y-25205
X89835Y-26205
X89835Y-27205
X92835Y-14205
X92835Y-15205
X92835Y-16205
X92835Y-17205
X92835Y-18205
X92835Y-19205
X92835Y-20205
X92835Y-21205
X92835Y-22205
X92835Y-23205
X92835Y-24205
X92835Y-25205
X92835Y-26205
X92835Y-27205
T4
X82484Y-31877
X84453Y-31877
T5
X59016Y-28780
X63031Y-32717
X63063Y-13898
X63071Y-15906
X64063Y-13898
X64449Y-32717
X64488Y-15906
X65063Y-13898
X65866Y-32717
X65906Y-15906
X66063Y-13898
X67063Y-13898
X67382Y-32717
X67441Y-19959
X67441Y-20959
X67441Y-21959
X67441Y-22959
X67441Y-23959
X67441Y-24959
X67441Y-25959
X67441Y-26959
X68063Y-13898
X68382Y-32717
X69382Y-32717
X69799Y-18394
X70382Y-32717
X71236Y-18409
X71260Y-13937
X71382Y-32717
X72382Y-32717
X72717Y-13937
X73898Y-32717
X74803Y-13858
X75315Y-32717
X76220Y-13858
X76732Y-32717
X77638Y-13858
X78150Y-32717
X79055Y-13858
X79567Y-32717
X80551Y-17898
X80551Y-18898
X80551Y-19898
X80551Y-20898
X80551Y-21898
X80551Y-22898
X80551Y-23898
X80551Y-24898
X80551Y-25898
X80551Y-26898
X80551Y-27898
X80551Y-28898
X80787Y-13858
X80984Y-32717
X82441Y-13780
X82744Y-16480
X84094Y-13858
X84213Y-16469
X85551Y-13858
X86028Y-28740
X86614Y-32677
X87008Y-13858
X87028Y-28740
X88028Y-28740
X88071Y-32677
X88425Y-13858
X89028Y-28740
X89488Y-32677
X90028Y-28740
X90906Y-32677
X91028Y-28740
X92028Y-28740
X92433Y-32693
X92449Y-30772
X93028Y-28740
X94028Y-28740
X95028Y-28740
X96028Y-28740
X96929Y-21496
X96929Y-22913
X96929Y-24331
X97028Y-28740
T6
X60394Y-31339
X60472Y-15276
X95433Y-15276
X95433Y-31339
T2
G00X82091Y-33078
M15
G01X82091Y-32802
M16
G05
G00X84846Y-32802
M15
G01X84846Y-33078
M16
G05
T0
M30
